<svg width="131" height="141" viewBox="0 0 131 141" fill="none" xmlns="http://www.w3.org/2000/svg">
<path fill-rule="evenodd" clip-rule="evenodd" d="M9.9816 93.8835C9.8686 93.9115 9.7166 93.9965 9.6836 94.0915C9.6196 94.2725 9.6276 94.4785 9.5796 94.8945C9.3356 95.4205 9.9306 95.9165 10.1556 96.5155C10.1826 96.5865 10.4426 96.6605 10.4926 96.6165C10.9876 96.1845 11.4696 95.7355 11.9336 95.2695C11.9996 95.2035 12.0066 94.9855 11.9486 94.9035C11.4736 94.2265 10.9306 93.6465 9.9816 93.8835Z" fill="#231F33"/>
<path fill-rule="evenodd" clip-rule="evenodd" d="M7.95562 95.7636C7.82162 95.3156 7.46362 95.0035 6.91962 95.0715C6.80062 95.1095 6.66262 95.1235 6.57162 95.1965C6.53862 95.2225 6.58462 95.4255 6.65062 95.4845C7.06262 95.8525 7.32162 96.2595 7.20362 96.8515C7.15362 97.1005 7.18062 97.3745 7.22262 97.6285C7.23662 97.7155 7.39762 97.8355 7.49862 97.8435C7.99962 97.8835 8.56162 97.2126 8.30462 96.8376C8.06262 96.4876 8.06262 96.1246 7.95562 95.7636Z" fill="#231F33"/>
<path fill-rule="evenodd" clip-rule="evenodd" d="M14.5586 99.8335C14.4556 99.7005 14.3436 99.4695 14.1276 99.5965C13.9676 99.6905 13.7276 99.9755 13.7506 100.007C14.0906 100.463 13.6006 100.82 13.6366 101.225C13.6416 101.279 13.7096 101.328 13.7786 101.418C13.9216 101.336 14.0706 101.251 14.2196 101.166C14.9516 100.753 15.0336 100.447 14.5586 99.8335Z" fill="#231F33"/>
<path fill-rule="evenodd" clip-rule="evenodd" d="M5.8596 89.5906C5.7886 89.5746 5.6226 89.6875 5.6076 89.7625C5.5706 89.9535 5.5956 90.1556 5.5956 90.3536C5.6076 90.3536 5.6186 90.3536 5.6306 90.3536C5.6306 90.6176 5.6116 90.8845 5.6376 91.1455C5.6546 91.3155 5.7736 91.3785 5.8776 91.3125C6.2376 91.0865 6.4376 90.7755 6.4056 90.3295C6.3866 90.0585 6.1246 89.6516 5.8596 89.5906Z" fill="#231F33"/>
<path fill-rule="evenodd" clip-rule="evenodd" d="M38.4156 116.58C38.4256 116.576 38.4096 116.471 38.3806 116.432C37.9636 115.875 37.3116 115.768 36.7646 115.486C36.6426 115.664 36.5316 115.757 36.5186 115.862C36.5056 115.968 36.5696 116.169 36.6366 116.186C36.7966 116.226 36.9516 116.274 37.1086 116.32C37.1796 116.408 37.2606 116.493 37.3856 116.568C37.4376 116.506 37.4196 116.452 37.3846 116.4C37.6196 116.48 37.8506 116.575 38.0716 116.701C38.1426 116.741 38.3026 116.632 38.4156 116.58Z" fill="#231F33"/>
<path fill-rule="evenodd" clip-rule="evenodd" d="M8.93761 98.6905C8.72061 98.6165 8.43061 98.8325 8.40561 99.0875C8.35861 99.5645 8.48761 99.8245 8.78361 99.8465C8.99061 99.8615 9.48961 99.5265 9.53761 99.3385C9.58261 99.1645 9.23961 98.7935 8.93761 98.6905Z" fill="#231F33"/>
<path fill-rule="evenodd" clip-rule="evenodd" d="M12.7426 97.2766C12.7196 97.2266 12.6566 97.1955 12.6116 97.1555C12.5696 97.2055 12.4936 97.2535 12.4926 97.3045C12.4806 97.8115 12.4776 98.3195 12.4816 98.8265C12.4816 98.8815 12.5396 98.9696 12.5856 98.9796C12.6316 98.9896 12.6986 98.9275 12.7486 98.8875C13.2606 98.4815 13.2756 98.3805 12.9616 97.7925C12.8736 97.6285 12.8226 97.4456 12.7426 97.2766Z" fill="#231F33"/>
<path fill-rule="evenodd" clip-rule="evenodd" d="M10.3756 92.5016C10.3686 92.4466 10.2916 92.3546 10.2536 92.3576C9.94958 92.3836 9.61158 92.8785 9.65658 93.2305C9.66358 93.2875 9.73158 93.3356 9.77158 93.3886C10.0456 93.3506 10.4146 92.8186 10.3756 92.5016Z" fill="#231F33"/>
<path fill-rule="evenodd" clip-rule="evenodd" d="M10.4886 100.903C10.4376 101.069 10.3626 101.246 10.5706 101.38C10.6526 101.332 10.8196 101.257 10.8126 101.233C10.7656 101.073 10.6816 100.924 10.6096 100.771C10.5676 100.815 10.5036 100.852 10.4886 100.903Z" fill="#231F33"/>
<path fill-rule="evenodd" clip-rule="evenodd" d="M42.4996 125.899C42.6116 125.9 42.7256 125.807 42.8386 125.756C42.7276 125.701 42.6166 125.606 42.5046 125.604C42.4726 125.603 42.4396 125.622 42.4076 125.634C42.2216 125.522 41.9696 125.411 41.9046 125.527C42.0076 125.584 42.0456 125.653 41.9906 125.738C42.1356 125.801 42.2576 125.838 42.3586 125.852C42.4046 125.876 42.4516 125.899 42.4996 125.899Z" fill="#231F33"/>
<path fill-rule="evenodd" clip-rule="evenodd" d="M19.7966 34.6165C19.7286 34.6555 19.7056 34.7735 19.6726 34.8735C19.7706 34.8485 19.8816 34.8315 19.9306 34.7685C20.0076 34.6685 19.9076 34.5535 19.7966 34.6165Z" fill="#231F33"/>
<path fill-rule="evenodd" clip-rule="evenodd" d="M19.6726 34.8745C19.6546 34.8795 19.6346 34.8825 19.6186 34.8885C19.6186 34.9025 19.6186 34.9155 19.6186 34.9295C19.6316 34.9275 19.6446 34.9255 19.6566 34.9245C19.6626 34.9085 19.6676 34.8905 19.6726 34.8745Z" fill="#231F33"/>
<path fill-rule="evenodd" clip-rule="evenodd" d="M19.3706 35.1745C19.3846 35.2275 19.5176 35.2495 19.6166 35.2805C19.6166 35.1635 19.6176 35.0465 19.6176 34.9295C19.4736 34.9475 19.3186 34.9695 19.3706 35.1745Z" fill="#231F33"/>
<path fill-rule="evenodd" clip-rule="evenodd" d="M19.6176 35.2805C19.6176 35.2975 19.6176 35.3135 19.6176 35.3305C19.6256 35.3285 19.6336 35.3285 19.6416 35.3265C19.6466 35.3155 19.6516 35.3025 19.6566 35.2925C19.6446 35.2875 19.6296 35.2845 19.6176 35.2805Z" fill="#231F33"/>
<path fill-rule="evenodd" clip-rule="evenodd" d="M6.1286 46.2645C6.1176 46.2665 6.1046 46.3835 6.1216 46.3925C6.2016 46.4345 6.2886 46.4635 6.3736 46.4945C6.3566 46.3615 6.3426 46.2245 6.1286 46.2645Z" fill="#231F33"/>
<path fill-rule="evenodd" clip-rule="evenodd" d="M6.37457 46.4945C6.37757 46.5165 6.38057 46.5395 6.38457 46.5605C6.40357 46.5655 6.42157 46.5625 6.44057 46.5655C6.43857 46.5465 6.42657 46.5355 6.42657 46.5155C6.40957 46.5095 6.39257 46.5015 6.37457 46.4945Z" fill="#231F33"/>
<path fill-rule="evenodd" clip-rule="evenodd" d="M4.59362 49.2905C4.64062 49.2465 4.68662 49.2035 4.73362 49.1595C4.66162 48.9685 4.56562 48.9595 4.46862 49.1455C4.45762 49.1665 4.54962 49.2405 4.59362 49.2905Z" fill="#231F33"/>
<path fill-rule="evenodd" clip-rule="evenodd" d="M3.33658 51.0755C3.28558 51.0865 3.26058 51.2245 3.22858 51.3275C3.34258 51.3275 3.45758 51.3285 3.57158 51.3285C3.54658 51.1935 3.53658 51.0335 3.33658 51.0755Z" fill="#231F33"/>
<path fill-rule="evenodd" clip-rule="evenodd" d="M2.8246 51.7285C2.8066 51.7285 2.7896 51.7285 2.7716 51.7275C2.7676 51.7495 2.7646 51.7725 2.7616 51.7955C2.7806 51.7885 2.7986 51.7795 2.8176 51.7715C2.8176 51.7545 2.8236 51.7435 2.8246 51.7285Z" fill="#231F33"/>
<path fill-rule="evenodd" clip-rule="evenodd" d="M3.17258 51.3765C2.96458 51.4035 2.83958 51.5115 2.82458 51.7285C2.94058 51.7305 3.05559 51.7315 3.17159 51.7325C3.17159 51.6135 3.17158 51.4945 3.17258 51.3765Z" fill="#231F33"/>
<path fill-rule="evenodd" clip-rule="evenodd" d="M2.76162 51.7955C2.68162 51.8275 2.59962 51.8565 2.52462 51.8975C2.50762 51.9065 2.51962 52.0165 2.52762 52.0175C2.72762 52.0475 2.74562 51.9225 2.76162 51.7955Z" fill="#231F33"/>
<path fill-rule="evenodd" clip-rule="evenodd" d="M26.2706 113.833C26.3096 113.796 26.3786 113.761 26.3806 113.722C26.3826 113.683 26.3186 113.64 26.2846 113.599C26.2456 113.657 26.2076 113.716 26.1686 113.774C26.2026 113.794 26.2366 113.813 26.2706 113.833Z" fill="#231F33"/>
<path fill-rule="evenodd" clip-rule="evenodd" d="M32.5386 115.712C32.5986 115.864 32.6846 115.89 32.7566 115.79C32.7776 115.76 32.7656 115.707 32.7686 115.665C32.7316 115.643 32.6836 115.595 32.6586 115.604C32.6096 115.624 32.5316 115.693 32.5386 115.712Z" fill="#231F33"/>
<path fill-rule="evenodd" clip-rule="evenodd" d="M39.7706 124.944C39.7656 124.982 39.8356 125.03 39.8736 125.074C39.9206 125.035 39.9666 124.996 40.0136 124.956C39.9726 124.911 39.9316 124.866 39.8916 124.82C39.8476 124.862 39.7766 124.898 39.7706 124.944Z" fill="#231F33"/>
<path fill-rule="evenodd" clip-rule="evenodd" d="M47.2226 125.749C47.1926 125.711 47.1416 125.619 47.1226 125.625C46.9386 125.688 46.9316 125.784 47.1046 125.874C47.1186 125.881 47.1816 125.794 47.2226 125.749Z" fill="#231F33"/>
<path fill-rule="evenodd" clip-rule="evenodd" d="M111.926 23.7225C112.123 23.3965 112.017 22.9365 111.553 22.3925C111.206 22.6685 111.867 23.2865 111.926 23.7225Z" fill="#231F33"/>
<path fill-rule="evenodd" clip-rule="evenodd" d="M66.3716 7.13954C65.5766 7.06454 67.3436 6.92954 66.3926 6.75854C66.4156 7.03554 65.5886 6.77854 65.2556 6.83554C65.0876 7.14254 66.1946 7.41554 66.3716 7.13954Z" fill="#231F33"/>
<path fill-rule="evenodd" clip-rule="evenodd" d="M40.0376 9.43454C39.4546 9.62754 39.3946 9.88455 39.5786 10.1685C40.1556 9.97655 40.2166 9.71954 40.0376 9.43454Z" fill="#231F33"/>
<path fill-rule="evenodd" clip-rule="evenodd" d="M74.5096 7.74254C74.0936 7.77854 73.8036 7.91855 73.3296 7.90555C73.3406 7.62555 70.5146 6.98855 69.9736 7.43355C71.4426 7.64755 72.7846 7.81054 74.1376 8.06754C74.8166 8.18554 75.5016 8.30454 76.2146 8.42854C76.9236 8.57154 77.6596 8.72054 78.4416 8.87854C78.1336 8.42754 77.3796 8.28355 76.5956 8.17655C75.8086 8.07255 74.9836 8.05354 74.5096 7.74254Z" fill="#231F33"/>
<path fill-rule="evenodd" clip-rule="evenodd" d="M69.3766 6.60955C68.6156 6.53755 68.5616 6.94855 67.7546 6.84255C68.0406 7.15955 67.1376 7.26755 67.7156 7.34955C68.0086 6.92755 69.0316 7.00355 69.3766 6.60955Z" fill="#231F33"/>
<path fill-rule="evenodd" clip-rule="evenodd" d="M3.29059 50.7475C3.51959 49.8165 3.8076 49.2346 4.0216 48.7286C3.8606 48.6856 3.62359 49.2385 3.45059 49.7775C3.27459 50.3155 3.22959 50.8575 3.29059 50.7475Z" fill="#231F33"/>
<path fill-rule="evenodd" clip-rule="evenodd" d="M33.6346 22.9595C33.9856 22.7235 34.1386 22.9105 34.5206 22.6055C34.4726 22.3135 33.4026 22.7505 33.6346 22.9595Z" fill="#231F33"/>
<path fill-rule="evenodd" clip-rule="evenodd" d="M77.6166 1.83554L78.1076 1.95154C78.1746 1.80354 77.9576 1.72354 78.0076 1.57954C77.6986 1.51754 77.4456 1.50454 77.3186 1.59154C77.8036 1.68054 77.8786 1.74354 77.6166 1.83554Z" fill="#231F33"/>
<path fill-rule="evenodd" clip-rule="evenodd" d="M81.7766 11.5185L82.4746 11.7625C82.6596 11.4215 81.8226 11.2395 81.7766 11.5185Z" fill="#231F33"/>
<path fill-rule="evenodd" clip-rule="evenodd" d="M84.8896 8.74853C84.7906 8.62853 84.0016 8.24054 83.8536 8.38254C84.2616 8.45154 84.5846 8.91153 84.8896 8.74853Z" fill="#231F33"/>
<path fill-rule="evenodd" clip-rule="evenodd" d="M85.4896 12.5695C85.0596 12.4035 84.7006 12.3235 84.4556 12.3755C84.7926 12.4305 85.4896 12.9105 85.4896 12.5695Z" fill="#231F33"/>
<path fill-rule="evenodd" clip-rule="evenodd" d="M87.3246 12.3845C87.5046 12.2825 87.1906 12.0915 86.9016 11.9865C86.6046 11.8995 86.3366 11.8906 86.6326 12.0866C86.8456 11.8936 86.9446 12.3275 87.3246 12.3845Z" fill="#231F33"/>
<path fill-rule="evenodd" clip-rule="evenodd" d="M87.5966 12.5085C88.1856 12.8245 88.3226 12.7155 88.6906 13.0145C88.9046 12.7765 87.6166 12.2815 87.5966 12.5085Z" fill="#231F33"/>
<path fill-rule="evenodd" clip-rule="evenodd" d="M94.6916 15.8505C94.3966 15.6015 94.2856 15.5965 94.1636 15.2415C94.1086 15.3385 93.8966 15.1745 93.8216 15.2365C93.9076 15.3965 94.3766 15.9345 94.6916 15.8505Z" fill="#231F33"/>
<path fill-rule="evenodd" clip-rule="evenodd" d="M98.9416 9.99653C98.5816 9.85053 97.8826 9.18753 97.8426 9.53953C98.2616 9.76953 98.8006 10.1925 98.9416 9.99653Z" fill="#231F33"/>
<path fill-rule="evenodd" clip-rule="evenodd" d="M98.6756 20.1785C99.1176 20.5225 99.4786 20.8615 99.7656 21.1905C99.8496 20.9505 98.9906 20.2155 98.6756 20.1785Z" fill="#231F33"/>
<path fill-rule="evenodd" clip-rule="evenodd" d="M104.933 20.2355C105.239 20.4935 105.523 20.6935 105.747 20.7305C105.628 20.4085 105.14 20.1785 104.933 20.2355Z" fill="#231F33"/>
<path fill-rule="evenodd" clip-rule="evenodd" d="M106.627 25.0705C106.329 24.7645 105.814 24.4235 105.964 24.2295C106.195 24.3725 106.552 24.9035 106.694 24.7805C106.176 23.8555 104.955 23.6175 104.055 22.9675C104.502 23.6675 106.027 24.7805 106.627 25.0705Z" fill="#231F33"/>
<path fill-rule="evenodd" clip-rule="evenodd" d="M117.622 29.6135C117.9 30.0055 118.197 29.8095 118.158 29.6235L117.859 29.2255C117.657 29.2955 117.895 29.5785 117.622 29.6135Z" fill="#231F33"/>
<path fill-rule="evenodd" clip-rule="evenodd" d="M120.374 36.9815C119.662 36.3235 119.885 35.8955 119.215 35.2405C119.177 35.5455 120.008 37.2345 120.374 36.9815Z" fill="#231F33"/>
<path fill-rule="evenodd" clip-rule="evenodd" d="M123.71 43.6035C123.84 43.5325 123.963 43.5285 124.079 43.6175C123.628 42.8055 123.512 42.0615 123.004 41.4365C123.061 41.7055 122.512 41.3435 122.346 40.8605C122.268 40.9275 122.119 40.9435 122.189 41.1185C122.759 42.0765 123.541 42.2415 123.71 43.6035Z" fill="#231F33"/>
<path fill-rule="evenodd" clip-rule="evenodd" d="M124.425 43.1035L124.721 43.8665C125.051 43.9965 124.572 42.7615 124.425 43.1035Z" fill="#231F33"/>
<path fill-rule="evenodd" clip-rule="evenodd" d="M124.213 45.1445C124.32 45.0695 124.523 45.0785 124.468 44.8615C124.02 45.0145 124.461 43.9565 123.963 44.0215C124.063 44.4195 124.096 44.5545 124.213 45.1445Z" fill="#231F33"/>
<path fill-rule="evenodd" clip-rule="evenodd" d="M119.178 105.958C118.889 106.124 119.024 106.359 118.628 106.784C118.74 107.119 119.35 106.808 119.292 106.421C119.158 106.569 119.002 106.682 118.867 106.742C118.813 106.587 119.31 106.091 119.178 105.958Z" fill="#231F33"/>
<path fill-rule="evenodd" clip-rule="evenodd" d="M94.0716 128.499C94.6936 128.107 95.3296 127.823 95.2646 127.589C94.8146 128.056 93.9736 128.187 93.6936 128.499C93.8786 128.417 94.0556 128.346 94.0716 128.499Z" fill="#231F33"/>
<path fill-rule="evenodd" clip-rule="evenodd" d="M78.7336 134.341C79.1016 134.216 79.4056 134.076 79.4696 133.885C79.0456 133.999 78.4426 134.071 78.7336 134.341Z" fill="#231F33"/>
<path fill-rule="evenodd" clip-rule="evenodd" d="M64.1466 136.822C62.9186 136.987 62.3026 136.93 61.3126 136.992C62.1296 137.169 63.2666 137.298 63.9876 136.998C63.6876 136.972 64.0546 136.906 64.1466 136.822Z" fill="#231F33"/>
<path fill-rule="evenodd" clip-rule="evenodd" d="M62.4646 136.266C62.8226 136.081 63.4466 135.981 63.7666 135.738C63.0036 135.826 62.6116 135.787 62.4646 136.266Z" fill="#231F33"/>
<path fill-rule="evenodd" clip-rule="evenodd" d="M61.1426 136.309C61.4786 136.112 61.8226 136.615 62.3006 136.347C62.3236 136.136 62.2096 135.992 61.9646 135.912C61.5106 136.003 61.0836 136.108 60.4816 136.116C60.6226 136.421 60.4996 136.325 60.6436 136.631C60.3746 136.595 60.1936 136.729 60.4766 136.794C60.6856 136.569 61.4536 136.647 61.6396 136.411C61.4446 136.39 61.1696 136.409 61.1426 136.309Z" fill="#231F33"/>
<path fill-rule="evenodd" clip-rule="evenodd" d="M58.4596 137.13C59.2866 137.651 58.4966 137.244 59.1316 137.162C59.5256 137.111 60.0826 137.355 60.3086 137.04C59.5336 137.121 59.1626 136.959 58.4596 137.13Z" fill="#231F33"/>
<path fill-rule="evenodd" clip-rule="evenodd" d="M53.2636 136.632C53.8246 136.682 55.2606 136.845 55.1176 136.714C54.3716 136.603 53.6906 136.531 53.2636 136.632Z" fill="#231F33"/>
<path fill-rule="evenodd" clip-rule="evenodd" d="M51.0326 135.533C51.4456 135.587 51.5676 135.454 51.8596 135.658C52.0666 135.345 50.9236 135.172 51.0326 135.533Z" fill="#231F33"/>
<path fill-rule="evenodd" clip-rule="evenodd" d="M49.4536 133.904C50.0126 133.912 50.1316 134.078 50.4356 133.983C50.3276 133.897 49.3576 133.582 49.4536 133.904Z" fill="#231F33"/>
<path fill-rule="evenodd" clip-rule="evenodd" d="M47.5576 124.373C47.9856 124.482 48.4126 124.793 48.8016 124.683L48.8576 124.434C48.3006 124.292 48.0196 124.421 47.5576 124.373Z" fill="#231F33"/>
<path fill-rule="evenodd" clip-rule="evenodd" d="M41.0316 125.753C41.5436 125.816 41.7676 126.065 42.0516 126.028C41.9476 125.971 41.9086 125.902 41.9636 125.817C41.5336 125.661 41.0496 125.437 41.0316 125.753Z" fill="#231F33"/>
<path fill-rule="evenodd" clip-rule="evenodd" d="M37.8376 127.262C37.9926 127.353 38.0276 127.451 38.0626 127.549C38.7586 127.617 38.9836 127.709 39.5066 127.723C38.8656 127.424 38.7646 127.48 38.3626 127.212C38.4766 127.589 37.8536 127.057 37.8376 127.262Z" fill="#231F33"/>
<path fill-rule="evenodd" clip-rule="evenodd" d="M35.5466 116.604C35.9656 116.808 36.1866 117.019 36.4436 117.228C36.7246 116.576 37.4146 117.95 37.8506 117.446C37.5396 117.367 36.8426 117.203 37.0736 116.888C37.5936 116.844 38.2406 117.677 38.3976 117.237C37.5806 116.941 37.0486 116.725 36.5266 116.196C36.8536 116.834 36.0496 116.32 36.3276 116.865C36.0626 116.77 35.5816 116.268 35.5466 116.604Z" fill="#231F33"/>
<path fill-rule="evenodd" clip-rule="evenodd" d="M20.9426 115.874C20.5646 116.097 21.0976 116.469 21.4166 116.52C21.0166 116.251 21.3406 116.143 20.9426 115.874Z" fill="#231F33"/>
<path fill-rule="evenodd" clip-rule="evenodd" d="M15.7406 113.631C16.1706 113.766 15.1806 112.573 14.8806 112.459C14.8736 112.828 14.7176 113.149 14.8826 113.582C15.1016 113.541 15.2726 113.325 15.5716 113.574C15.6066 113.773 16.5776 114.96 16.7296 114.678C16.4656 114.255 16.1076 113.996 15.7406 113.631Z" fill="#231F33"/>
<path fill-rule="evenodd" clip-rule="evenodd" d="M39.9496 120.117C39.9606 120.118 39.9696 120.122 39.9806 120.124C39.9726 120.117 39.9636 120.11 39.9556 120.103L39.9496 120.117Z" fill="#231F33"/>
<path fill-rule="evenodd" clip-rule="evenodd" d="M69.7696 132.469L69.7786 132.539C70.0406 132.475 70.3016 132.412 70.5486 132.352C70.2876 132.391 70.0286 132.43 69.7696 132.469Z" fill="#231F33"/>
<path fill-rule="evenodd" clip-rule="evenodd" d="M130.958 68.3575C130.849 66.5365 130.741 64.7445 130.637 63.0205C130.608 62.5905 130.578 62.1645 130.55 61.7425C130.492 61.3225 130.435 60.9075 130.379 60.4975C130.264 59.6775 130.152 58.8785 130.043 58.1065C129.632 57.4885 129.703 55.1485 128.9 54.6165C128.855 53.6855 128.847 53.3565 128.447 52.5055C129.001 52.7445 128.231 51.5075 128.642 51.5835C128.271 50.8905 128.423 49.9145 128.036 49.6755C128.225 50.6925 128.629 51.2695 128.315 51.6775C128.16 50.7095 127.667 49.7735 127.857 49.0325C127.57 48.3165 126.74 47.0815 126.851 46.3845C126.457 46.4445 126.613 45.5155 126.228 45.1995C126.07 45.1935 126.114 45.5105 125.994 45.2955C125.6 44.7555 125.655 43.8695 125.286 43.4415C125.349 43.6325 125.404 43.8165 125.249 43.8165C125.011 43.3705 125.208 43.3055 124.968 42.8595C124.687 42.9205 125.099 43.5815 125.093 43.8845C125.462 44.0975 126.153 45.8645 126.046 46.1615C125.713 45.6855 125.46 45.5885 125.504 44.9585C125.248 44.9365 125.462 45.3305 125.306 45.3955C125.498 45.9065 125.759 45.8175 125.945 46.3775C125.695 46.3595 125.48 46.0535 125.243 45.9515C125.427 46.5105 125.71 46.2425 125.901 46.7475C125.808 46.9515 125.467 46.3885 125.584 46.8695C125.655 46.9155 125.701 46.9795 125.736 47.0525C125.685 47.0665 125.635 47.0705 125.584 47.0955C125.48 47.1475 125.377 47.2025 125.274 47.2565C125.292 47.1865 125.332 47.1345 125.403 47.1115C125.14 46.6925 125.19 46.6025 125.142 46.1665C124.949 46.2495 125.105 46.9345 125.207 47.2925C124.986 47.4095 124.765 47.5265 124.538 47.6295C124.522 47.6365 124.479 47.6065 124.435 47.5655C124.399 47.4205 124.35 47.2735 124.29 47.1255C124.276 46.9505 124.248 46.7885 124.094 46.6595C123.902 46.2055 123.752 45.7715 123.957 45.4255C123.424 45.1635 122.822 43.1125 122.887 42.5645C122.687 42.6025 122.453 42.3395 122.259 42.0135C122.259 41.8975 122.263 41.7805 122.279 41.6615C122.302 41.4985 122.173 41.4455 121.996 41.4845C121.88 41.1895 121.828 40.9395 121.899 40.9045C121.652 40.6755 121.406 40.4295 121.16 40.1715C121.077 39.9715 120.998 39.7725 120.91 39.5735C120.929 39.5775 120.947 39.5875 120.966 39.5895C120.659 38.9205 120.334 38.3045 119.998 37.7045C119.991 37.6935 119.984 37.6825 119.976 37.6725C119.24 36.3005 118.381 34.9715 117.427 33.7455C117.096 33.1865 116.759 32.5975 116.398 31.9425C116.286 32.0355 116.149 31.9725 116.003 31.8375C115.936 31.1955 115.27 30.5455 114.733 29.9725C114.607 29.5325 114.393 29.1095 114.118 28.7055C114.14 28.6735 114.161 28.6405 114.196 28.6105C114.005 28.3625 113.922 28.3285 113.865 28.3575C113.784 28.2515 113.699 28.1475 113.612 28.0435C113.251 27.6035 112.856 27.1735 112.484 26.7425C112.095 26.3255 111.728 25.9055 111.437 25.4655C110.534 24.0515 109.638 22.6035 108.621 21.2285C107.566 19.8985 106.373 18.6525 104.799 17.8585C104.491 17.6075 104.472 18.0455 104.188 17.8475C103.271 16.9885 102.046 16.2055 100.814 15.3765C99.5316 14.6225 98.2496 13.8055 97.0296 13.1015C95.3316 12.0465 93.8476 10.6935 91.9356 9.98654C90.8136 9.60654 89.8046 9.34054 88.8586 9.25554C87.9036 9.18754 87.0256 9.26955 86.1936 9.53055C84.5366 8.83155 82.1856 9.59654 80.6906 8.45154C80.3176 8.49754 80.2836 8.88154 79.6716 8.68054C79.2316 8.58754 79.2806 8.38755 79.0756 8.25255C78.9736 8.71655 79.2296 8.66354 78.8796 8.98854C80.1666 9.09454 80.7276 9.32855 81.8976 9.21155C82.1836 9.33755 82.2606 9.51054 82.7266 9.61954C85.3236 9.66154 88.4296 9.90153 91.6966 11.0005C94.8396 12.1035 97.4486 14.3665 99.7506 15.0205C100.174 15.3645 99.7236 15.6155 99.9766 15.9405C101.238 16.2845 101.747 17.4325 103.001 18.1885C103.862 18.7535 104.927 18.8405 105.862 19.5725C106.78 20.3475 107.414 21.1065 108.068 21.8985C108.7 22.7165 109.344 23.5775 110.297 24.5725C110.303 24.6285 110.316 24.6855 110.328 24.7425C109.87 24.3635 109.543 23.9995 108.818 23.4405C108.919 23.2645 109.196 23.7045 109.32 23.6025C108.793 23.0535 108.324 22.7095 107.92 22.3595C107.521 22.0045 107.195 21.6365 106.902 21.0815C106.683 21.4215 106.091 20.7375 105.809 20.9005C106.432 21.4915 107.225 22.2285 107.22 22.8545C106.611 22.5205 106.711 21.9715 106.349 21.9535C106.727 22.6775 107.181 23.0645 107.706 23.4355C108.231 23.8045 108.771 24.2145 109.371 24.8975C109.293 24.9835 109.189 24.9745 109.084 24.9625C109.391 25.5145 110.01 25.8785 110.478 26.2155C110.578 26.3745 110.697 26.5245 110.808 26.6795C110.73 26.6305 110.645 26.5905 110.547 26.5725C110.652 26.7865 110.773 27.0055 110.857 27.2115C110.77 27.1595 110.688 27.1285 110.634 27.1385C110.742 27.2495 110.843 27.3595 110.933 27.4645C110.956 27.5765 110.964 27.6825 110.932 27.7745C110.137 27.3385 109.396 27.1275 108.667 26.9525C108.561 26.7905 108.476 26.6345 108.42 26.4885L108.237 26.6655C108.344 26.7535 108.418 26.8325 108.474 26.9045C108.369 26.8795 108.263 26.8555 108.158 26.8315C108.111 26.7835 108.063 26.7305 108.013 26.6745C108.105 26.5825 107.93 26.1765 107.808 26.4545C107.949 26.5945 107.979 26.6985 107.923 26.7775C107.922 26.7775 107.921 26.7775 107.919 26.7765C107.669 26.6285 107.375 26.5335 107.179 26.3365C106.962 26.1175 106.884 25.7675 106.696 25.5115C106.443 25.1675 105.696 25.1735 105.526 25.5615C105.469 25.6915 105.407 25.8065 105.34 25.9175C105.114 25.7985 104.883 25.6615 104.646 25.5055C104.738 25.0815 104.672 24.6505 104.489 24.2245C104.461 24.1595 104.261 24.1565 104.139 24.1505C104.09 24.1485 104.009 24.2045 103.992 24.2525C103.984 24.2725 103.975 24.2965 103.966 24.3205C103.617 24.1705 103.257 23.9685 103.168 23.5475C103.065 23.6535 103.022 23.7715 103.06 23.9045C103.33 24.0825 103.593 24.2385 103.903 24.5395C103.9 24.5705 103.902 24.5965 103.916 24.6095C104.065 24.7625 104.141 24.9295 104.192 25.1025C103.485 24.4205 102.818 23.8535 102.167 23.4245C102.017 23.3285 101.87 23.2415 101.724 23.1555C101.744 23.1375 101.763 23.1185 101.783 23.0995C101.743 23.0495 101.703 22.9995 101.662 22.9495C101.626 22.9845 101.579 23.0195 101.555 23.0555C101.083 22.7875 100.631 22.5725 100.194 22.3945C100.034 22.2295 99.8856 22.0725 99.7616 21.9335C99.6036 21.8185 99.4266 21.7115 99.2436 21.6065C96.6046 19.2005 93.1396 16.8625 89.3536 15.1545C85.2096 13.2495 80.7636 12.0885 77.0436 11.6815C76.1986 11.2835 75.3956 10.9835 74.5176 10.8055C73.6416 10.6135 72.7026 10.4785 71.5766 10.4765C70.4246 9.44455 68.1696 9.30154 65.9706 9.41754C65.4216 9.44754 64.8726 9.47755 64.3406 9.50655C63.8096 9.54855 63.2956 9.59554 62.8126 9.61354C61.8456 9.64354 61.0026 9.61154 60.3806 9.40054C59.3286 10.7135 55.7926 10.3895 54.5456 9.95154C54.3916 10.4195 53.8796 10.6315 53.2656 10.7135C52.6526 10.7985 51.9416 10.7945 51.3856 10.7545C51.3436 10.5725 52.2066 10.1825 51.3106 10.3805C50.8826 10.4275 50.9226 10.6335 50.7236 10.7565C50.2796 10.5535 49.7316 10.4685 49.4646 10.1225C48.6516 10.2295 48.6006 10.5585 47.7896 10.6675C47.9396 10.3695 48.0216 10.0495 48.4886 9.83855C49.6066 9.38455 49.8606 9.73954 50.5126 9.76054C50.4196 9.45454 50.0136 9.45454 50.6236 9.21954C51.0716 9.93754 51.9866 8.75054 52.6736 9.33554C52.2746 9.43154 51.9666 9.55855 51.8556 9.75455C52.6746 9.46255 53.6726 9.18553 54.4006 8.94453C54.1686 8.98353 53.8356 8.96754 54.1636 8.85054C50.1926 8.70054 46.4826 9.41654 42.9896 10.6355C39.4896 11.8615 36.1956 13.5855 32.8856 15.6325C32.3676 15.5745 31.6116 15.9205 30.8856 16.2165C29.1366 17.6955 27.8006 18.6095 28.0976 20.0585C30.2416 18.5115 31.8366 17.0805 35.6526 15.1565C36.5846 15.0365 37.4036 15.1745 37.8866 15.7595C35.1106 17.6025 31.5776 18.6525 29.1876 20.8405C28.8516 21.1555 28.8076 21.4115 28.4686 21.6765C26.4026 23.3265 25.1926 23.9445 23.7406 25.0365C20.9216 27.1615 18.5486 30.1275 16.2566 32.7735C15.7606 33.3605 14.8056 33.6215 14.7416 34.6065C15.4326 33.9265 16.1396 33.2065 16.7356 32.4895C17.3446 31.7805 17.8986 31.1135 18.2506 30.5045C19.0296 29.8705 20.0796 29.0165 21.0786 28.0595C22.1406 27.1615 23.1666 26.1645 24.0816 25.4155C24.6066 25.1245 25.0966 24.8285 25.5606 24.5235C26.0366 24.2325 26.4956 23.9425 26.9346 23.6385C27.8056 23.0185 28.6536 22.4145 29.5286 21.7905C31.2666 20.5335 33.1586 19.2375 35.7456 18.1215C36.3176 18.5845 36.8466 18.1605 37.7066 17.8135C37.9856 18.5155 38.7336 18.4925 39.6906 18.1465C40.1276 17.7345 39.1506 17.8235 39.6126 17.4815C40.2446 17.4425 40.8436 17.4385 41.1416 17.9075C40.6436 18.1135 40.1096 18.4295 39.7966 18.3765C40.2206 18.8495 41.3076 18.2745 41.5936 18.9585C40.7236 19.4305 39.9176 19.9655 39.1376 20.4955C38.3776 21.0675 37.6376 21.6265 36.9136 22.1955C35.4746 23.3525 34.0666 24.4615 32.4156 25.4095C31.8066 25.4205 31.2996 25.1565 30.6326 25.2915C30.6186 25.9585 31.9466 25.3685 32.4056 25.7315C32.0676 26.2295 31.5386 26.7185 31.0556 27.2315C30.9116 27.3905 30.7726 27.5485 30.6396 27.7065C30.6066 27.7145 30.5766 27.7245 30.5436 27.7325C29.9216 27.8785 29.2056 28.0915 28.9286 28.7465C28.8806 28.8595 28.8216 28.9545 28.7656 29.0545C28.2926 29.4105 27.8686 29.7705 27.4796 30.1345C27.4556 30.1425 27.4366 30.1555 27.4116 30.1625C27.3706 30.2205 27.3256 30.2665 27.2826 30.3165C27.2076 30.3895 27.1266 30.4615 27.0546 30.5335C26.5516 30.9245 25.9136 30.9405 25.2656 30.9325C25.0356 30.9295 24.9196 31.0665 24.8516 31.2755C24.8126 31.3975 24.7546 31.5265 24.6696 31.6175C24.4656 31.8355 24.2896 32.2275 23.9146 31.8165C23.5636 31.8945 23.3836 32.1645 23.2646 32.4595C23.0476 32.9955 22.7476 33.3815 22.0976 33.3415C21.9796 33.3345 21.8166 33.3825 21.7406 33.4655C21.2946 33.9485 20.6296 34.2465 20.4226 34.9275C20.2876 35.3715 19.9356 35.2735 19.6386 35.3285C19.5886 35.4395 19.5516 35.5915 19.4746 35.6145C18.4896 35.9105 17.7466 36.5475 17.0486 37.2635C16.6826 37.6385 16.3336 38.0095 15.8076 38.2255C15.0996 38.5155 14.2626 38.7795 14.3956 39.8625C14.4126 40.0025 14.1806 40.1875 14.0396 40.3275C13.8036 40.5645 13.5566 40.7895 13.3006 41.0035C13.1736 41.1105 13.0536 41.3755 12.8406 41.1235C12.6976 40.9555 12.3436 40.8525 12.6166 40.5145C12.6946 40.4175 12.7566 40.2805 12.7606 40.1595C12.7636 40.0435 12.6826 39.9245 12.6376 39.8065C12.5816 39.8435 12.5236 39.8765 12.4706 39.9165C12.0326 40.2445 11.7566 40.7245 11.7926 41.2235C11.8116 41.4865 11.8876 41.6685 11.6796 41.8695C11.3456 42.1915 11.0526 42.5565 10.5166 42.5505C9.87859 42.5435 10.3456 42.9045 10.2946 43.1185C10.1926 43.5415 9.95459 44.0855 9.60859 44.2645C9.24759 44.4515 9.00059 44.7005 8.80759 44.9845C8.88559 44.6005 8.97859 44.2195 9.12959 43.8515C9.94559 41.5865 11.9306 39.1605 12.7416 36.9175C13.7326 36.5875 12.9386 36.2515 14.0326 35.4305C13.9006 35.1385 13.7406 34.5915 13.4176 34.7495C13.2736 34.7085 13.1176 34.8415 12.9616 34.9715C12.4796 36.2355 11.7146 36.9585 11.4066 38.1485C9.03859 40.5675 7.68359 43.4515 6.70459 46.5625C6.61859 46.5775 6.53059 46.5835 6.43659 46.5685C6.44659 46.7015 6.51259 46.7955 6.60959 46.8585C6.58859 46.9255 6.56659 46.9915 6.54559 47.0585C6.45859 47.3575 6.37759 47.6605 6.29559 47.9625C6.12859 48.0695 5.95959 48.1745 5.76959 48.2585C5.42659 48.4095 5.19859 48.7115 5.18959 49.1825C5.16559 50.5275 5.13959 50.5275 3.92459 51.2355C3.82759 51.2915 3.71659 51.3215 3.60959 51.3605C3.57659 51.5955 3.45059 51.7375 3.21559 51.7695C3.24359 52.0875 3.74459 52.3885 3.21259 52.7405C2.94159 52.9195 2.70159 53.1855 2.52959 53.4625C2.45559 53.5815 2.38559 53.6925 2.31159 53.7995C2.30959 53.7505 2.30259 53.7065 2.28659 53.6715C2.26359 53.7515 2.23259 53.8485 2.20259 53.9445C2.09259 54.0755 1.96259 54.1945 1.77659 54.2935C1.39659 54.4955 1.75359 54.8615 1.91159 55.1345C1.28959 55.8895 1.92559 56.9945 1.19059 57.7185C1.18259 58.2525 1.26959 58.8105 1.14059 59.3125C0.994592 59.8775 0.705593 60.3945 0.802593 61.0185C0.873593 61.4755 0.624593 61.7545 0.179593 61.8885C0.103593 61.9115 0.00359233 62.1565 0.0425923 62.2155C0.323592 62.6415 0.139593 63.0475 0.0305932 63.4585C0.536593 64.0925 0.417593 64.8535 0.392593 65.5635C0.367593 66.2695 0.586592 67.0325 0.0395921 67.6755C-0.0644079 67.7975 0.0465922 68.0735 0.254592 68.1555C0.506592 68.2555 0.760592 68.3165 0.748592 68.6685C0.739592 68.9345 0.747592 69.2025 0.764592 69.4685C0.836592 70.5735 0.609593 71.7115 1.16659 72.7655C1.23659 72.8975 1.12959 73.1425 1.06559 73.3205C1.00759 73.4835 0.785593 73.5945 0.989593 73.8115C1.29959 74.1405 1.22059 74.5585 1.19059 74.9515C1.12659 75.7885 1.13859 76.1725 1.32659 76.5125C1.61159 77.0275 1.82759 77.5825 2.31659 77.9715C2.51059 78.1255 2.73359 78.3845 2.74359 78.6055C2.77159 79.2105 2.89559 79.7705 3.18359 80.2995C3.05959 81.3425 3.56859 82.1975 4.01059 83.0705C4.06659 83.1815 4.17359 83.3815 4.21159 83.3715C4.98059 83.1675 5.10059 83.9706 5.56659 84.2206C6.04059 84.4746 6.52859 84.7006 7.01659 84.9276C7.10859 85.1496 7.19559 85.3766 7.28359 85.6046C7.25259 85.6756 7.27359 85.7296 7.34959 85.7726C7.43359 85.9956 7.51259 86.2275 7.59159 86.4595C7.30759 86.7485 7.11859 87.0175 7.41659 87.5305C7.73259 88.0735 7.84959 88.7395 8.00759 89.3625C8.06059 89.5715 8.11459 89.7555 8.30859 89.8165C8.59259 89.9065 8.75459 89.9706 8.56959 90.3286C8.42459 90.6096 8.49859 91.0385 8.30759 91.2545C7.84159 91.7845 8.45959 92.0785 8.50459 92.4865C8.52759 92.6965 8.86859 92.6785 9.00859 92.5675C9.37359 92.2795 9.68059 91.9186 10.0436 91.6266C10.3916 91.3456 10.1976 91.1425 10.0836 90.8225C9.86059 90.1955 9.99259 89.5195 10.0866 88.8665C10.0936 88.8145 10.1686 88.7715 10.2116 88.7245C10.2566 88.7735 10.3376 88.8215 10.3406 88.8725C10.3716 89.4025 10.8876 89.6035 11.0926 90.0065C11.1886 90.1955 10.6986 90.5075 11.0876 90.6185C11.6886 90.7895 11.9276 91.2005 12.1196 91.7145C12.3456 92.3215 12.5706 92.9305 12.8356 93.5215C13.1296 94.1755 13.4706 94.8086 13.7856 95.4536C13.8706 95.6266 14.0176 95.8215 13.9946 95.9865C13.9026 96.6665 14.2226 97.1635 14.7036 97.5345C15.2106 97.9245 15.2186 98.4195 15.2006 98.9615C15.1896 99.2885 15.1376 99.6415 15.4206 99.8945C15.9746 100.389 16.1596 101.108 16.5536 101.692C16.7286 101.951 16.7616 101.574 16.8336 101.445C16.8886 101.348 16.9726 101.266 17.0436 101.178C17.0846 101.231 17.1616 101.285 17.1596 101.337C17.1406 102.112 17.3616 102.884 16.9436 103.658C16.6556 104.192 16.8286 104.774 17.1716 105.336C17.7366 106.264 17.8126 106.404 18.7046 106.706C19.4506 106.958 19.5826 107.094 19.6036 107.789C19.6216 108.389 19.5566 108.999 20.1316 109.419C20.2336 109.494 20.3596 109.63 20.3586 109.737C20.3496 110.666 21.0456 111.133 21.6076 111.682C22.0306 112.096 22.3666 112.629 23.0046 112.769C23.2906 113.379 23.8176 113.799 24.2106 114.318C24.6496 114.897 25.5436 114.939 25.7556 115.74C25.7896 115.87 25.9436 115.835 26.0196 115.661C26.0706 115.544 26.0636 115.4 26.1186 115.286C26.1386 115.245 26.1636 115.207 26.1906 115.168C26.5036 115.414 26.8496 115.664 27.1856 115.912C26.9496 115.668 26.6676 115.24 26.3796 114.873C26.3916 114.846 26.4046 114.819 26.4096 114.79C26.4666 114.467 26.2306 114.366 25.9466 114.285C25.7726 114.236 25.5526 114.08 25.4966 113.922C25.4586 113.813 25.3956 113.723 25.3426 113.626C25.3746 113.629 25.4076 113.634 25.4516 113.642C25.3786 113.556 25.3186 113.508 25.2636 113.475C24.9236 112.946 24.4096 112.557 24.0656 112.035C23.8156 111.655 23.3886 111.272 23.3806 110.884C23.3716 110.407 23.7186 109.924 23.9096 109.442C23.9806 109.263 24.0416 109.08 24.1176 108.903C24.1426 108.846 24.1936 108.791 24.2466 108.756C24.4696 108.608 24.3076 108.685 24.3576 108.906C24.4706 109.402 24.7366 109.529 25.1926 109.516C25.6246 109.504 25.5016 109.712 25.3916 109.999C25.2206 110.446 25.7086 110.23 25.8636 110.369C26.0086 110.499 26.0406 110.632 25.8506 110.645C25.2096 110.687 25.3936 111.029 25.5426 111.377C25.2116 111.688 25.2056 112.073 25.3006 112.476C25.3146 112.537 25.3606 112.614 25.4116 112.635C25.4486 112.65 25.5296 112.596 25.5716 112.553C25.7106 112.412 25.9186 112.282 25.9616 112.113C26.1546 111.355 26.6106 111.058 27.3816 111.059C27.6746 111.213 27.9596 111.287 28.1896 111.22C28.1106 111.396 28.0656 111.574 28.1306 111.76C28.0836 111.729 28.0516 111.707 28.0376 111.696C28.0786 111.746 28.1246 111.788 28.1676 111.836C28.2116 111.921 28.2726 112.008 28.3766 112.097C28.4856 112.191 28.4516 112.383 28.3776 112.564C28.2816 112.491 28.1776 112.418 28.0576 112.343C28.2106 112.015 27.5376 111.308 27.5006 111.717C28.1826 111.801 27.4786 112.084 27.6236 112.232C27.8556 112.356 28.0456 112.6 28.2576 112.84C28.0716 113.245 27.9026 113.66 27.7646 114.083C27.5476 114.752 27.5596 115.391 28.2116 115.85C28.8286 116.284 28.9906 116.881 28.8726 117.595C28.8406 117.79 28.8806 117.996 28.8546 118.193C28.8426 118.282 28.8516 118.363 28.8576 118.445C28.7566 118.427 28.6506 118.403 28.5316 118.363C28.6526 118.487 28.7716 118.575 28.8876 118.65C28.9016 118.709 28.9156 118.767 28.9356 118.824C28.1486 118.433 27.3306 117.78 26.5146 117.086C25.8786 116.526 25.2266 115.95 24.6146 115.411C24.0226 114.85 23.4816 114.311 22.9556 113.933C23.1516 114.116 22.3426 113.7 22.1236 113.307C22.1196 114.001 23.2746 115.225 23.4496 116.176C23.9316 116.62 24.2176 116.985 24.2776 117.348C24.4866 117.512 24.6706 117.616 24.8176 117.645C24.5806 118.349 27.5606 120.289 26.9666 120.478C27.4986 120.695 27.9716 120.769 28.6966 121.21C28.8566 121.068 28.5526 120.907 28.7856 120.77C29.1536 121.013 29.4636 121.155 29.6586 121.099C28.8816 120.583 28.5566 120.878 27.8696 120.499C28.1336 120.315 27.8326 119.955 27.5086 119.927C27.1516 120.04 27.9036 120.274 27.7446 120.409C27.5436 120.274 27.5296 120.522 27.2776 120.283C27.7896 120.084 26.2196 119.559 26.0976 119.009C26.2036 118.892 26.3396 118.836 26.5366 118.91C27.3706 119.662 27.1056 119.111 27.5866 119.253C27.9946 119.497 27.7876 119.679 28.0656 119.91C28.3596 119.619 29.0486 120.045 29.5316 120.429C30.2246 120.671 30.9416 120.722 31.6126 120.802C31.6486 120.835 31.6786 120.861 31.7176 120.896C32.0996 121.238 32.5516 121.504 32.9766 121.797C33.0806 121.869 33.2186 121.805 33.2296 121.636C33.2546 121.247 33.4206 120.796 33.1426 120.482C32.7676 120.059 32.4706 119.474 31.7366 119.527C31.5726 119.539 31.3326 119.418 31.2356 119.281C31.0946 119.081 30.9636 118.875 30.8296 118.67C30.8646 118.651 30.9076 118.635 30.9686 118.624C30.8586 118.577 30.7746 118.524 30.6976 118.471C30.4896 118.146 30.2856 117.819 30.0776 117.494C30.2786 116.952 30.4556 116.4 30.6916 115.874C30.7786 115.681 30.8306 115.518 30.7706 115.325C30.7546 115.274 30.6626 115.197 30.6606 115.199C29.9356 115.792 29.8126 114.94 29.4666 114.68C29.2106 114.487 29.2006 114.169 29.2156 113.866C29.6496 113.719 29.8156 114.548 30.3076 114.351C30.3516 114.394 30.3926 114.439 30.4426 114.477C30.7146 114.864 31.1836 115.344 31.7096 115.716C32.2556 116.114 32.7836 116.466 33.0326 116.686C32.9926 116.595 33.2796 116.474 33.3806 116.512C33.6526 116.93 35.0756 117.119 34.4086 117.222C34.8406 117.52 35.0386 117.385 35.2866 117.345C34.2226 116.932 33.3956 116.245 32.6236 116.158C32.4926 115.682 31.8276 115.382 31.3236 115.055C31.1326 114.929 30.9586 114.81 30.8366 114.695C30.9176 114.683 31.0196 114.637 31.1006 114.608C31.1266 114.599 31.1506 114.5 31.1316 114.465C31.0696 114.349 30.9636 114.251 30.9206 114.13C30.8566 113.949 30.7976 113.734 31.0186 113.615C31.1906 113.523 31.3786 113.486 31.5666 113.629C31.7126 113.739 31.8796 113.821 32.0386 113.914C32.0616 114.11 32.0316 114.342 32.1306 114.485C32.2196 114.614 32.4526 114.676 32.6316 114.703C32.8986 114.744 33.1716 114.71 33.4296 114.79C33.3036 114.839 33.1586 114.821 33.4836 114.996C33.6076 114.993 33.7426 115.019 33.8816 115.058C33.9336 115.086 33.9826 115.102 34.0306 115.106C34.7836 115.368 35.6696 116.039 36.2376 116.136C35.8876 115.911 35.5506 115.692 35.2126 115.472C35.4146 115.479 35.6166 115.481 35.8176 115.47C35.8656 115.467 35.9226 115.4 35.9506 115.348C35.9626 115.325 35.9236 115.252 35.8896 115.229C35.6096 115.041 35.3246 115.044 35.0426 115.225C35.0136 115.244 34.9986 115.285 34.9816 115.322C34.7946 115.2 34.6106 115.076 34.4266 114.954C34.6036 114.824 34.7796 114.671 34.9946 114.712C35.2246 114.756 35.4646 114.738 35.7046 114.719C35.9186 114.927 36.1466 115.133 36.4086 115.252C36.4806 115.035 36.8806 115.451 36.9086 115.152C36.9346 115.078 36.9136 115.007 36.8786 114.937C37.2766 115.146 37.6686 115.121 38.0796 115.11C38.5086 115.098 38.7836 115.169 38.9386 115.685C39.0166 115.942 39.2096 116.146 39.4646 116.256C39.4286 116.407 39.5706 116.589 39.7676 116.766C39.3386 116.748 39.1766 117.158 38.6446 116.986C38.8646 117.103 39.0246 117.227 39.0566 117.369C38.8876 117.501 38.5166 117.319 38.3916 117.523C38.8866 117.646 39.4226 117.969 39.9086 118.423C40.0826 118.008 40.7846 118.508 40.9836 118.642C40.7406 118.792 40.3736 118.669 40.0646 118.402C40.1396 118.862 39.5306 118.28 39.5266 118.619C39.9836 118.951 41.6906 118.656 42.0686 119.558C40.9826 119.01 40.6216 119.292 39.8856 119.161C39.5106 119.535 39.6316 119.831 39.9356 120.102L40.0276 119.881C40.3036 119.969 40.3366 120.088 40.4976 120.192C40.3916 120.226 40.2876 120.262 40.4346 120.349C40.3246 120.531 40.2626 120.17 39.9606 120.122C40.3396 120.448 40.9746 120.74 41.3356 121.091C42.4936 121.393 44.0276 122.455 44.9906 122.486C44.6106 122.246 43.6606 122.07 43.6766 121.574C44.0836 121.272 44.3836 122.047 44.6436 121.735C44.1046 121.426 43.7986 121.526 43.6826 121.126C43.8536 121.186 43.8476 121.027 43.9946 121.058C44.4846 121.339 45.0066 121.782 44.8536 121.99C44.8916 121.722 45.1676 122.328 45.2706 122.046C45.0986 121.909 45.1616 121.719 45.1346 121.549C44.4896 121.346 44.1156 121.08 44.1016 120.735C44.9416 120.664 45.5036 121.09 46.1346 121.149C46.2556 121.394 46.4006 121.605 46.5916 121.796C46.7586 121.963 46.9436 121.925 47.1326 121.855C47.2936 121.796 47.3796 121.543 47.6216 121.692C47.9526 121.896 48.3546 122.021 48.6196 122.287C49.2336 122.902 49.9446 123.327 50.7446 123.635C50.7496 123.637 50.7526 123.647 50.7576 123.65C50.7356 123.683 50.7066 123.711 50.7006 123.753C49.9446 123.637 49.3956 123.819 48.6376 123.423C48.6686 123.489 48.7286 123.527 48.7796 123.573C48.3026 123.475 47.8136 123.379 47.3126 123.293C46.9756 123.812 47.8796 123.279 47.8466 123.716C47.5236 123.792 46.4806 123.562 46.4586 123.21C46.6976 123.318 46.9466 123.427 47.1786 123.495C47.1056 123.305 46.7916 123.19 46.5096 123.064C46.5116 123.061 46.5106 123.058 46.5126 123.055C46.4986 123.053 46.4856 123.049 46.4716 123.047C46.2976 122.968 46.1416 122.883 46.0686 122.771C45.9716 122.818 45.2996 122.722 45.6016 122.879C45.6156 122.881 45.6396 122.892 45.6556 122.895C44.6556 122.672 43.7306 122.334 42.8316 122.078C41.6986 121.701 40.6236 121.402 39.5036 121.402C39.2846 120.937 38.8446 120.755 38.3796 120.711C37.1936 120.359 36.2686 119.64 35.6536 119.034C35.2706 119.488 34.7106 118.269 34.1536 118.256C34.1646 118.122 34.0776 118.045 34.2776 118.033C33.0856 117.951 33.0096 116.649 31.7566 116.234C32.2386 116.596 31.0696 116.358 32.0166 116.885C32.2806 116.819 31.8726 116.427 32.1926 116.594C31.8916 117.015 32.9466 117.525 33.0956 118.122C34.0096 118.112 34.4656 118.918 35.4236 119.487C35.4456 119.681 35.4406 120.253 35.8756 120.174C35.3326 119.959 36.1096 119.955 36.1916 119.856C36.7086 120.098 37.1356 120.445 37.5596 120.76C37.2626 120.822 37.0056 120.914 36.8656 121.002C36.9876 121.054 37.0946 121.091 37.2126 121.14C37.2076 121.234 37.2186 121.277 37.0496 121.391C37.6076 121.773 37.7486 121.549 38.0676 121.588C37.6556 122.018 39.4836 122.49 39.8406 122.968C39.8836 122.784 40.0436 122.775 40.3356 122.893C40.2396 122.986 40.1196 122.966 40.2446 123.13C42.8776 124.043 45.3016 124.74 47.7126 125.465C48.6016 125.401 51.0246 125.732 50.7476 126.553C53.6746 127.488 56.8156 127.671 60.1066 127.956C61.2156 127.561 62.5796 127.764 63.5906 127.857C63.4416 127.84 63.8886 127.646 64.1666 127.742C65.2116 128.086 63.4546 128.425 62.5856 128.384C63.3436 128.373 62.6046 128.944 62.4536 129.143C60.7966 129.307 59.4486 129.229 57.9866 129.387C57.6016 129.334 57.5516 129.112 57.1086 129.088C56.4556 129.39 55.8126 128.767 55.0456 128.752C54.6066 128.737 54.2496 129.057 53.8126 129.007C53.3256 128.95 52.9366 128.534 52.5226 128.476C52.2756 128.441 51.8236 128.523 51.6096 128.509C51.6326 128.51 51.7386 128.358 51.7836 128.364C51.3416 128.297 51.0876 128.497 50.7066 128.455C50.6386 128.446 50.6386 128.19 50.6046 128.172C50.1036 127.907 49.3756 128.192 48.7896 128.087C48.4186 127.745 49.3606 127.828 48.7306 127.637C48.6326 127.91 48.0256 127.711 47.7656 127.836C47.4596 127.277 46.1136 127.463 46.4096 127.059C45.9016 126.999 45.1876 126.944 44.5136 126.786C43.8396 126.626 43.1796 126.444 42.7396 126.278C42.8996 126.35 42.8536 126.46 42.8046 126.571C41.7376 126.186 41.3876 126.067 40.7546 126.02C40.7826 125.939 40.9026 125.966 40.9536 125.911C40.1476 125.635 39.3806 125.419 38.7296 125.133C38.0806 124.844 37.5116 124.567 37.0486 124.292C36.8676 124.331 36.7206 124.42 36.5016 124.409C36.2466 124.045 36.1196 124.092 35.7796 124.163C35.5676 123.889 35.8266 123.636 35.3716 123.595C35.7376 124.034 34.7126 123.592 34.4056 123.507C34.4766 123.355 34.0796 123.231 34.2806 123.071C34.3266 122.876 34.7156 123.176 34.8016 123.04C33.8966 122.631 33.7876 122.857 33.5466 123.186C33.8126 123.468 34.3656 123.733 34.6726 124.012C35.1366 123.701 36.4886 124.665 36.7466 124.993C36.5636 124.909 36.5616 125.071 36.4016 125.018C36.4206 124.917 36.5226 124.81 36.3646 124.721C35.3446 124.82 34.5956 124.139 33.5326 123.557C33.7066 124.013 33.1566 123.661 32.9886 123.951C34.0876 124.485 35.2106 124.987 36.1986 125.485C35.8256 125.128 36.7096 125.447 36.8926 125.434C37.1106 125.673 37.8126 126.265 38.0546 126.25C37.8946 126.161 37.9516 126.056 38.0086 125.949C38.4426 126.594 39.3966 126.747 40.1836 127.164C39.2876 126.788 39.6376 127.136 38.9316 126.976C39.5296 127.318 39.8546 127.553 40.4186 127.43L40.3346 127.67C41.0686 127.786 41.9236 128.163 42.8326 128.554C43.2876 128.747 43.7536 128.953 44.2266 129.111C44.7066 129.246 45.1886 129.354 45.6576 129.402C45.6556 129.505 45.5726 129.63 45.7466 129.687C47.3996 129.779 49.6036 130.923 50.4666 130.731C50.4726 131.069 49.6916 131.027 49.3536 130.75C49.3476 131.354 50.3126 131.125 50.7186 131.113C50.6946 131.113 50.7166 131.281 50.6916 131.28C51.3216 131.286 51.6546 130.954 52.3126 131.013C53.1526 131.087 53.3336 131.561 54.4426 131.577C54.1596 131.135 55.5846 131.71 56.0106 131.532C55.1826 131.399 55.6556 131.362 56.3266 131.427C56.9986 131.473 57.8746 131.549 57.8566 131.839C57.3426 131.786 57.2586 131.997 56.9076 132.043C57.7646 132.055 57.3556 132.154 57.5076 132.499C58.2066 132.442 58.2796 132.682 58.7566 132.73C58.6926 132.456 58.0616 132.455 57.8346 132.262C58.0496 132.276 58.1776 132.238 58.3056 132.2C58.6626 132.321 58.8906 132.758 59.2386 132.413C59.2206 132.56 59.2646 132.678 59.3856 132.759C58.1166 132.803 57.2436 132.839 56.3976 132.808C55.5546 132.716 54.7356 132.557 53.5796 132.225C52.8586 132.252 52.1406 132.074 51.4156 131.915C50.6886 131.755 49.9516 131.636 49.1816 131.666C49.1956 131.506 48.6826 131.487 48.7686 131.307C46.7956 131.069 44.9556 129.756 43.2556 129.868C43.6716 130.042 44.3096 130.121 44.2706 130.355C43.7906 130.245 41.6056 129.747 42.2586 129.342C41.8866 129.267 41.5406 129.22 41.0406 129.003C40.6986 129.261 41.8086 129.289 41.7086 129.509C41.0206 129.31 39.4516 128.92 39.1046 128.305C37.7306 127.855 36.5956 127.287 35.5626 126.794C34.5386 126.284 33.6546 125.762 32.9156 125.14C32.6346 125.487 32.7176 124.832 32.4286 124.707C32.0326 124.602 32.3666 125.15 32.1006 125.006C31.9636 124.927 31.9066 124.973 31.7876 124.922C31.2256 124.681 31.3986 124.456 31.0896 124.22C30.8116 124.331 30.1776 123.866 29.6496 123.566C29.8636 122.951 28.6856 122.718 28.1576 122.371C27.0536 121.702 25.9336 120.694 24.8216 119.802C23.7326 118.879 22.6466 118.067 21.8836 117.399C22.9476 118.623 23.5416 118.724 24.3656 119.842C25.2196 120.26 26.0496 120.914 26.8896 121.605C27.7486 122.265 28.6576 122.909 29.5566 123.411C29.4306 123.582 29.6396 123.766 29.6186 123.941C29.3956 123.955 29.0376 123.748 28.8096 123.754C29.2506 124.232 30.9596 124.638 31.6146 125.605C31.8176 125.409 32.1926 125.795 32.5016 125.974C33.2236 125.688 35.3526 126.74 36.1286 127.228C36.0336 127.361 34.8166 126.626 35.1966 126.98C35.6256 127.184 36.0766 127.383 35.9616 127.619C35.6876 127.545 35.1536 127.127 35.0586 127.291C35.4706 127.623 36.4776 127.917 36.0226 128.301C36.6116 128.643 35.9486 127.911 36.5896 128.19C36.5966 128.265 36.6746 128.337 36.8496 128.402C36.8906 128.85 36.4296 128.661 36.1856 128.75C36.7596 129.263 36.9296 128.956 37.0146 128.851C37.3886 129.27 36.5096 128.974 36.8276 129.324C37.4016 129.755 38.1016 130.012 38.4336 130.134C38.2666 130.054 38.2266 129.958 38.1866 129.863C38.4416 130.011 38.9046 129.862 38.9506 130.142C38.7666 130.088 38.5206 129.969 38.4626 130.054C39.2386 130.587 40.7016 130.891 41.0946 131.449C41.5056 131.474 40.8936 131.108 41.3496 131.18C42.2666 131.374 42.0606 131.741 42.6426 131.986C42.7606 131.896 42.5836 131.503 42.9136 131.631C43.4416 131.873 44.4606 131.911 44.2576 132.277C44.0746 132.294 43.0326 132.034 43.4216 132.234C44.3546 132.31 44.9306 132.651 45.4046 132.397C46.0166 132.658 45.1816 132.812 45.7626 133.012C45.9946 133.018 45.8606 132.701 46.1566 132.762C46.3306 132.966 47.9366 133.728 47.2306 133.202C47.8876 133.442 48.0216 133.462 48.9666 133.705C49.0166 133.587 48.9666 133.384 49.1856 133.409C50.4906 133.844 51.7636 133.972 52.9836 134.135C54.2076 134.272 55.3876 134.433 56.5746 134.656C56.6476 134.514 56.3496 134.425 56.5916 134.403C57.4876 134.587 58.2306 134.744 58.8556 134.433C58.8576 134.55 58.7736 134.616 58.6846 134.68C59.3536 134.557 60.1986 134.781 60.7906 134.937C60.3396 135.258 59.5076 134.934 59.3146 135.472C60.4546 135.472 60.9506 134.789 62.2516 134.986C62.4696 134.799 61.8296 134.655 62.2446 134.647C62.7386 134.763 62.8766 134.744 63.2116 134.572C63.2096 134.861 63.6966 134.866 64.0366 134.958C65.3076 134.581 66.5916 135.085 67.7396 134.494C68.3876 134.505 69.1096 134.509 69.8566 134.453C70.6026 134.365 71.3766 134.251 72.1306 134.117C73.6386 133.85 75.0646 133.506 76.0446 133.166C76.2356 133.358 76.9456 133.042 76.9346 133.392C77.7606 132.864 78.3956 133.238 78.9426 132.701C78.7466 132.742 78.5626 132.774 78.5826 132.62C78.9396 132.452 78.9836 132.459 79.6566 132.248C79.7096 132.372 79.7186 132.536 80.0436 132.408C80.3906 131.749 81.7976 131.927 82.5776 131.798C82.5696 131.626 82.3116 131.697 82.1826 131.645C82.7786 131.443 83.8486 130.953 84.1396 131.327C83.7786 131.556 83.4806 131.18 83.3446 131.526C83.5676 131.469 83.5826 131.638 83.7366 131.653C85.2416 130.594 87.5746 129.873 88.6736 129.517C89.0676 129.364 89.1276 129.013 89.2996 128.939C89.7626 128.738 90.2886 128.904 91.0166 128.393C90.8826 128.488 91.2256 128.3 91.6006 128.107C91.7466 128.034 93.1816 127.123 93.7186 127.24C93.8856 127.395 92.6386 127.916 93.1146 127.828C93.6256 127.539 93.7546 127.362 94.2816 127.24C94.1166 127.078 94.2626 126.905 94.4926 126.776C94.7156 126.634 95.0186 126.527 95.1886 126.533C94.8186 126.924 94.1756 127.27 94.1156 127.61C94.9756 127.062 96.3606 125.704 96.6606 126.433C96.6176 126.359 96.8496 126.193 96.9416 126.261C96.4806 126.789 96.8066 126.805 96.4086 127.281C97.1316 126.416 98.0096 126.011 98.8486 125.574C99.6736 125.123 100.51 124.709 100.949 123.688C101.075 123.795 100.911 123.949 101.018 124.059C101.435 123.761 101.237 123.565 101.842 123.234C101.909 123.384 102.104 123.272 102.18 123.405C102.504 123.121 102.878 122.825 102.999 122.575C102.438 123.046 102.079 123.093 101.819 122.933C102.773 122.376 102.955 121.753 104.015 121.477C103.442 121.812 103.783 121.975 103.207 122.309C103.459 122.368 103.585 122.696 104.052 122.303C103.995 122.188 103.808 122.097 103.969 121.94C104.111 122.293 105.949 121.105 106.624 120.46C106.544 120.105 106.157 120.556 106.039 120.303C106.248 120.245 106.536 119.984 106.83 119.702C106.714 120.087 106.776 119.994 107.05 120.189C107.496 119.886 107.03 119.83 107.37 119.555C107.573 119.806 108.134 119.094 108.396 119.191C108.736 118.492 109.053 118.517 109.127 118.745C109.43 118.145 109.669 118.034 109.802 117.536C110.123 117.466 109.868 117.623 110.044 117.774C110.502 117.222 110.477 117.3 110.954 117.03C111.074 116.79 111.07 116.577 111.172 116.322C111.499 116.221 111.672 115.861 111.471 116.372C112.842 115.127 112.521 114.034 113.255 113.514C112.849 113.03 113.535 112.627 114.108 112.293C114.105 112.002 113.58 112.411 113.843 112.079C114.281 111.851 114.535 111.566 114.863 111.005C115.162 111.057 114.914 111.372 114.999 111.527C115.11 111.149 115.554 110.824 115.53 110.685C115.349 110.847 115.182 110.927 115.029 110.927C115.265 110.618 115.205 110.452 115.555 110.087L115.76 110.238C116.221 108.85 117.711 107.525 117.746 106.814C117.99 106.347 118.129 106.658 118.343 106.419C118.249 106.35 118.141 106.38 118.034 106.414C118.141 106.008 119.663 104.676 118.751 105.317C119.185 104.674 119.59 104.645 119.663 104.142C119.443 104.458 119.268 104.353 119.444 104.014C119.43 104.278 119.611 104.258 119.833 103.86C119.788 103.653 119.937 103.326 120.034 103.029C120.008 103.523 120.554 102.455 120.609 102.224C120.528 102.325 120.443 102.501 120.368 102.465C120.505 102.166 120.798 101.321 121.113 101.194C121.167 101.336 120.806 101.745 120.932 101.84C121.345 101.432 121.2 101.155 121.442 100.628C122.037 100.645 121.826 98.9985 122.475 99.1255C122.039 99.6465 121.982 100.223 121.888 100.711C121.78 101.191 121.663 101.598 121.166 101.779C121.573 102.03 121.04 102.374 120.794 103.078C121.125 103.044 120.841 103.402 120.92 103.527C121.371 102.901 121.08 103.074 121.111 102.874C121.269 102.784 121.444 102.36 121.587 102.567C121.499 102.742 121.335 102.967 121.408 103.039C121.698 102.414 121.966 102.162 122.223 102.151C122.355 101.725 122.558 101.413 122.812 100.988C123.047 100.553 123.344 100.009 123.687 99.1455C123.687 98.8005 123.351 99.2405 123.524 98.7025C124.798 96.8915 124.997 94.8325 125.693 93.3135C125.568 92.9085 125.13 93.4336 125.384 92.6776C125.636 92.3336 125.76 92.4985 125.921 92.6895C126.12 91.1525 126.933 90.3856 127.377 88.7986C126.879 87.9546 128.112 85.9245 127.795 84.8125C127.729 85.5785 127.49 86.5385 127.109 86.8465C126.967 86.1725 127.334 84.2976 127.835 84.6516C127.754 83.7166 128.569 83.0925 128.129 82.7015C128.741 82.6305 129.016 80.7675 128.992 79.6825C128.994 79.8435 129.123 79.4555 129.172 79.0405C129.299 77.9575 129.481 76.7535 129.607 75.5635C129.655 74.6305 129.649 73.7065 129.571 72.8585C129.665 72.8545 129.764 72.8645 129.876 72.9065C129.801 71.8845 129.732 70.8775 129.661 69.8755C129.682 69.8925 129.706 69.9045 129.747 69.8845C129.605 69.3875 129.648 69.2015 129.578 68.7365C129.553 68.3985 129.525 68.0615 129.498 67.7255C129.667 67.3035 129.802 66.5405 129.834 66.1185C129.852 66.4435 130.076 66.3115 130.036 66.7635C129.913 67.4795 129.964 68.3745 130.285 68.8935C130.228 69.2365 130.143 69.2425 130.026 69.0615C130.239 70.9835 129.967 72.4125 130.329 74.1735C130.036 73.7335 130.033 75.7865 130.348 75.3345C130.106 76.4465 129.859 77.8685 129.724 79.2795C129.654 79.9845 129.606 80.6865 129.59 81.3455C129.582 81.6745 129.582 81.9935 129.591 82.2965C129.581 82.5955 129.58 82.8795 129.592 83.1425C129.7 82.3255 130.184 80.8855 129.95 80.1495C130.261 80.5815 130.117 79.4275 129.988 79.3125L130.24 79.3445C130.864 75.7805 130.917 72.0015 130.958 68.3575ZM107.04 22.1185C107.331 21.9795 107.515 22.4155 107.623 22.6465C107.46 22.7655 107.079 22.2195 107.04 22.1185ZM36.9066 125.059C36.9376 124.614 37.6346 125.263 37.6986 125.146C38.0486 125.47 37.2656 125.287 36.9066 125.059ZM41.7536 127.903C41.9646 127.465 42.2246 128.047 42.8036 128.181C42.6836 128.34 42.0716 127.961 41.7536 127.903ZM42.9676 126.622C43.0386 126.402 43.6976 126.665 43.8466 126.839C43.7766 127.012 43.2326 126.664 42.9676 126.622ZM53.4446 130.921C53.5886 130.875 53.8016 130.881 54.0676 130.924C54.0396 131.043 54.0136 131.16 54.1916 131.199C54.0496 131.376 53.2286 131.145 53.4446 130.921ZM58.3436 131.865C58.2406 131.628 58.6586 131.709 58.6676 131.541C57.4496 131.246 56.1736 131.425 55.7896 130.734C56.8416 131.03 57.2716 130.795 58.0926 130.665C58.2916 130.76 58.3796 130.908 58.6906 130.949C58.4526 131.135 58.3106 131.061 57.9226 130.997C58.0366 131.325 58.4456 131.513 59.1306 131.564C59.2276 131.88 58.8716 131.926 58.3436 131.865ZM124.565 84.9045C124.751 84.9215 124.467 85.4536 124.456 85.6866C124.405 85.6026 124.355 85.5165 124.333 85.4005C124.392 85.2645 124.45 85.1285 124.506 84.9915C124.524 84.9855 124.544 84.9655 124.565 84.9045ZM123.199 95.8575C122.855 96.4315 122.951 96.3605 122.649 97.0365C122.402 97.2275 122.139 96.9515 122.467 96.4285C122.725 97.0725 122.73 95.7565 123.199 95.8575ZM82.1786 127.272C82.1336 127.482 81.3956 127.617 81.0566 127.745C81.1936 127.287 81.5816 127.461 82.1786 127.272ZM74.2496 130.817C73.3886 130.897 72.9886 130.772 72.0306 130.751C72.4746 130.305 73.3796 130.501 74.2796 130.209C74.2736 130.413 74.1056 130.562 74.2496 130.817ZM69.5556 130.874C69.4406 131.164 69.0356 130.886 68.9356 130.849C68.8636 130.656 69.3626 130.724 69.3606 130.561C69.8936 130.505 69.0186 130.93 69.5556 130.874ZM71.4066 130.764C71.3356 130.974 70.9356 131.066 70.8626 131.277C70.6186 131.058 69.5456 131.469 69.4366 131.148C70.1396 131.296 70.5996 130.702 71.4066 130.764ZM70.2646 129.553C69.7796 129.668 69.3316 129.832 68.5206 129.943C68.1696 129.508 68.8716 129.356 69.7506 129.136C70.6326 128.934 71.7066 128.792 72.1266 128.675C72.7846 128.797 72.9696 129.117 72.0966 129.367C72.1156 129.295 72.2326 129.26 72.2156 129.177C71.2696 129.324 70.7496 129.431 70.2646 129.553ZM68.7916 130.944C67.6856 131.231 65.0916 131.245 65.7096 130.8C66.5006 131.113 67.5116 130.68 68.7916 130.944ZM72.9456 128.972C72.8566 128.76 73.2126 128.707 73.4876 128.624C73.5236 128.849 73.2276 129.08 72.9456 128.972ZM74.0706 126.402C73.0406 126.557 72.0006 126.654 71.1996 126.764C70.8546 126.905 71.3756 127.117 71.6856 127.029C71.5816 127.288 71.0726 127.103 70.8256 127.166C70.7846 127.018 70.9716 126.961 70.9146 126.809C70.8236 126.631 70.2076 126.885 69.9046 126.88C70.8156 126.324 71.7686 126.124 72.8686 125.99C73.4196 125.931 74.0046 125.869 74.6336 125.801C75.2566 125.698 75.9186 125.543 76.6296 125.343C76.6496 125.461 76.6696 125.579 76.8356 125.551C76.4686 125.744 76.0346 125.913 75.5646 126.063C75.3296 126.138 75.0856 126.208 74.8376 126.274C74.5836 126.316 74.3266 126.359 74.0706 126.402ZM40.0646 116.327C40.1236 116.316 40.1956 116.327 40.2506 116.353L40.2516 116.354C40.2456 116.374 40.2476 116.393 40.2336 116.415C40.0446 116.379 39.9536 116.353 39.9046 116.329C39.9586 116.327 40.0076 116.338 40.0646 116.327ZM32.0266 112.919C31.9826 112.958 31.9386 112.997 31.8946 113.037C31.8546 113.017 31.8136 112.996 31.7736 112.976C31.7956 112.946 31.8166 112.915 31.8386 112.884C31.8606 112.854 31.8816 112.823 31.9036 112.792C31.9446 112.834 31.9856 112.876 32.0266 112.919ZM57.6276 19.4885C57.5206 19.5945 57.3516 19.6575 57.0836 19.6795C57.0456 19.6825 57.0066 19.6805 56.9676 19.6815C56.8546 19.6425 56.6736 19.6675 56.5026 19.6875C56.8576 19.4965 57.2376 19.4555 57.6276 19.4885ZM127.343 52.9795C127.451 53.3535 127.366 53.5135 127.267 53.6575C127.148 53.2115 127.115 52.7365 126.974 52.2925C126.979 52.2055 126.991 52.1255 127.012 52.0575C127.29 53.0055 126.917 52.9245 127.343 52.9795ZM127.547 53.7705C127.6 54.0605 127.645 54.2755 127.689 54.4575C127.668 54.4515 127.655 54.4385 127.632 54.4335C127.572 54.3575 127.523 54.2775 127.478 54.1975C127.401 53.9435 127.344 53.7125 127.547 53.7705ZM127.002 74.9435C127.019 74.7215 126.978 74.5915 126.907 74.5085C126.935 74.1365 126.985 73.7915 127.068 73.5285C127.125 73.6315 127.179 73.7405 127.231 73.8515C127.252 73.6995 127.195 73.4795 127.175 73.2835C127.187 73.2615 127.196 73.2295 127.209 73.2095C127.195 73.1675 127.188 73.1155 127.175 73.0715C127.189 73.0005 127.218 72.9415 127.277 72.9055C127.299 73.2065 127.506 73.1995 127.409 73.7015C126.835 74.3175 127.208 73.9745 127.002 74.9435ZM74.4526 20.3475C74.3546 20.3645 74.3016 20.3415 74.2686 20.3015C74.3336 20.2845 74.3996 20.2695 74.4646 20.2535C74.4666 20.2905 74.4616 20.3455 74.4526 20.3475ZM115.212 36.4985C114.956 36.4795 114.729 36.4135 114.712 36.0895C114.712 36.0845 114.712 36.0785 114.712 36.0735C114.887 36.2035 115.056 36.3415 115.212 36.4985ZM126.843 70.0535C126.823 69.7995 126.803 69.5435 126.781 69.2875C126.788 69.2655 126.798 69.2455 126.805 69.2235C126.864 69.0305 127.038 68.8705 127.199 68.7115C127.201 68.9765 127.204 69.2395 127.206 69.4975C127.222 70.0765 127.265 70.6365 127.351 71.1705C127.217 71.1845 127.058 71.1455 127.083 71.4825C127.209 71.5115 127.398 71.4305 127.416 71.6455C127.357 72.1185 127.251 72.4985 127.105 72.7955C126.93 72.0265 126.881 71.0645 126.843 70.0535ZM127.156 67.8105C127.158 67.8535 127.161 67.8965 127.163 67.9395C127.145 67.8965 127.145 67.8535 127.156 67.8105ZM118.853 40.4475C118.666 40.2455 118.698 39.9675 118.942 39.7795C118.959 39.7665 118.984 39.7635 119.008 39.7595C119.288 40.1015 119.549 40.4915 119.793 40.9305C119.441 40.9955 119.24 40.8635 118.853 40.4475ZM118.573 39.2795C118.282 39.1965 118.09 39.0065 117.989 38.7185C118.189 38.8885 118.384 39.0775 118.573 39.2795ZM126.898 74.6525C126.928 74.8455 126.916 75.0515 126.88 75.2655C126.88 75.0595 126.886 74.8555 126.898 74.6525ZM128.789 59.9445C128.832 59.8205 128.893 59.6975 128.957 59.5745C128.963 59.8465 128.927 60.0755 128.82 60.1595C128.814 60.0925 128.799 60.0155 128.789 59.9445ZM128.593 58.3745C128.596 58.3215 128.589 58.2545 128.599 58.2105C128.656 58.2755 128.711 58.3925 128.761 58.5285C128.712 58.4915 128.656 58.4395 128.593 58.3745ZM128.083 56.6515C127.876 57.1105 128.173 57.6615 128.328 57.5995C128.304 57.8045 128.251 57.8785 128.181 57.8885C128.111 57.7975 128.043 57.7075 127.977 57.6165C127.962 57.5575 127.951 57.4995 127.935 57.4395C127.852 57.3395 127.765 57.2525 127.676 57.1705C127.621 57.0815 127.576 57.0025 127.558 56.9555C127.492 56.7865 127.686 56.5605 127.899 56.5805C127.953 56.5855 128.007 56.6005 128.06 56.6165C128.068 56.6285 128.074 56.6405 128.083 56.6515ZM126.896 52.0835C126.89 52.0685 126.886 52.0525 126.879 52.0375C126.85 51.9715 126.849 51.9155 126.859 51.8615C126.872 51.9375 126.885 52.0115 126.896 52.0835ZM58.5966 19.6905C58.5006 19.6835 58.4146 19.6595 58.3396 19.6175C58.4256 19.6405 58.5106 19.6645 58.5966 19.6905ZM78.9066 127.455C79.0296 127.818 78.4576 127.537 78.0586 127.77C78.2066 127.513 78.5186 127.492 78.9066 127.455ZM111.675 111.747C111.839 112.027 111.239 112.212 110.888 112.756C110.786 112.641 110.623 112.783 110.526 112.651C110.919 112.315 111.318 111.943 111.675 111.747ZM112.453 110.737C112.537 110.824 112.622 110.908 112.756 110.778C112.948 110.933 112.315 111.584 112.081 111.672C111.969 111.45 112.116 111.131 112.453 110.737ZM124.831 84.1285C124.859 84.1475 124.895 84.1585 124.92 84.1805C124.822 84.4105 124.781 84.4325 124.733 84.3965C124.766 84.3065 124.8 84.2185 124.831 84.1285ZM126.673 77.7785C126.662 77.6525 126.65 77.5285 126.63 77.4185C126.677 77.3705 126.728 77.3335 126.782 77.3045C126.772 77.4535 126.729 77.6135 126.673 77.7785ZM126.98 76.7495C126.947 76.5505 126.921 76.2915 126.903 76.0105C126.954 75.7825 127.014 75.5675 127.148 75.2705C127.107 75.9755 127.041 76.2125 127.067 76.7325C127.038 76.7405 127.01 76.7515 126.98 76.7495ZM129.003 62.8765C129.086 62.4905 129.108 62.0925 129.039 61.6125C129.505 61.7985 129.311 62.9255 129.068 63.3215C129.048 63.1735 129.024 63.0245 129.003 62.8765ZM128.871 60.4825C129.021 60.6635 129.113 61.0145 129.183 61.4275C128.885 61.6095 128.779 60.7485 128.871 60.4825ZM127.669 52.5505L127.342 52.6415C127.219 52.3745 127.407 51.9165 127.132 51.8515C127.072 51.3045 127.34 51.9815 127.419 51.9385C127.461 51.7305 127.35 51.6045 127.211 51.4525C127.269 51.4045 127.322 51.3535 127.368 51.2995C127.581 51.6365 127.73 52.0425 127.669 52.5505ZM127.023 49.8305C126.912 49.8175 126.857 49.5295 126.79 49.3035C126.799 49.3025 126.807 49.3045 126.816 49.3035C126.895 49.2955 126.961 49.2335 127.014 49.1585C127.231 49.6085 126.988 49.5745 127.023 49.8305ZM125.647 48.2565C125.68 48.2345 125.757 48.2475 125.796 48.2735C126.083 48.4615 126.278 48.7025 126.348 49.0595C126.381 49.2255 126.521 49.2925 126.682 49.3035C126.709 49.4315 126.732 49.5745 126.737 49.7515C126.656 49.7755 126.676 49.9095 126.618 49.9605C126.409 49.2295 126.007 49.4855 126.494 49.8305C126.514 49.9315 126.532 50.0335 126.552 50.1355C126.282 50.1285 126.013 50.1215 125.745 50.0915C125.669 50.0835 125.54 49.8785 125.56 49.7935C125.616 49.5565 125.843 49.3145 125.805 49.1115C125.763 48.8845 125.471 48.7095 125.534 48.4115C125.547 48.3535 125.596 48.2895 125.647 48.2565ZM122.796 42.9625C122.697 42.9135 122.599 42.8695 122.496 42.9245C122.433 42.7775 122.369 42.6525 122.304 42.5405C122.287 42.4375 122.277 42.3335 122.269 42.2295C122.433 42.4575 122.625 42.7245 122.796 42.9625ZM111.909 28.0465C111.971 28.1195 112.036 28.1955 112.098 28.2695C112.085 28.2935 112.078 28.3195 112.06 28.3415C111.709 28.2715 111.544 27.8085 111.333 27.3715C111.52 27.5985 111.708 27.8245 111.909 28.0465ZM106.109 26.1925C106.14 26.2125 106.16 26.2505 106.178 26.2925C106.109 26.2665 106.039 26.2365 105.97 26.2085C105.998 26.1715 106.052 26.1565 106.109 26.1925ZM55.3376 19.8465C55.3406 19.9135 55.3426 19.9815 55.3446 20.0505C55.5066 20.0495 55.6036 19.9625 55.6606 19.8405C55.9296 19.8415 56.2036 19.8505 56.4856 19.8575C56.3836 20.0745 56.1846 20.2155 55.9916 20.3435C55.6676 20.5575 55.4436 20.4285 55.3306 20.0885C55.2156 20.1275 55.0956 20.1545 54.9896 20.2095C54.4646 20.4805 54.2736 20.4735 53.9906 20.1115C53.9806 20.0985 53.9746 20.0825 53.9646 20.0695C54.4196 19.9175 54.8736 19.8595 55.3376 19.8465ZM51.4356 20.4605C51.9006 20.3715 52.3386 20.3345 52.7316 20.3315C52.6316 20.4175 52.5006 20.4775 52.2906 20.4725C52.1646 20.4695 51.9796 20.4765 51.9186 20.5545C51.4686 21.1285 50.7456 20.6505 50.2486 21.0115C49.9006 21.2645 49.7026 21.1355 49.5306 20.9375C50.1676 20.7235 50.8256 20.5715 51.4356 20.4605ZM18.1776 100.936C18.1226 100.924 18.0666 100.734 18.0806 100.637C18.0876 100.586 18.1166 100.537 18.1506 100.49C18.1846 100.443 18.2246 100.396 18.2556 100.348C18.3076 100.445 18.3886 100.538 18.4036 100.641C18.4276 100.798 18.4096 100.987 18.1776 100.936ZM20.0136 105.964C19.9916 106.051 19.8766 106.115 19.8046 106.189C19.7616 106.142 19.6886 106.099 19.6826 106.047C19.6616 105.869 19.6606 105.689 19.6536 105.509C19.6436 105.509 19.6376 105.506 19.6276 105.506C19.6266 105.493 19.6246 105.48 19.6236 105.466C19.5336 105.425 19.4426 105.387 19.3596 105.335C19.3446 105.326 19.3666 105.208 19.3806 105.206C19.5986 105.175 19.6116 105.321 19.6236 105.466C19.6336 105.47 19.6426 105.476 19.6526 105.48C19.6526 105.49 19.6526 105.499 19.6536 105.509C19.9456 105.516 20.0896 105.662 20.0136 105.964ZM21.2206 107.066C21.1186 107.005 21.0166 106.945 20.9146 106.884C21.0236 106.828 21.1336 106.725 21.2406 106.729C21.3496 106.733 21.4556 106.842 21.5626 106.905C21.4486 106.959 21.3346 107.012 21.2206 107.066ZM22.0266 107.927C22.0166 108.074 22.0056 108.223 21.7806 108.186C21.7656 108.184 21.7446 108.064 21.7596 108.054C21.8446 108.003 21.9366 107.966 22.0266 107.927C22.0276 107.913 22.0286 107.899 22.0306 107.885C22.0406 107.886 22.0476 107.882 22.0576 107.883C22.0466 107.644 22.0186 107.402 22.2196 107.211C22.3376 107.1 22.7296 107.104 22.7226 107.215C22.7166 107.315 22.6856 107.432 22.6236 107.506C22.4736 107.683 22.3406 107.906 22.0576 107.882C22.0576 107.892 22.0586 107.901 22.0586 107.911C22.0476 107.916 22.0376 107.922 22.0266 107.927ZM23.6146 108.297C23.3326 108.939 22.7456 109.429 22.6806 110.186C22.6776 110.224 22.4426 110.287 22.3396 110.258C22.2406 110.23 22.0876 110.074 22.1036 110.011C22.2936 109.256 22.6266 108.562 23.0926 107.939C23.1326 107.885 23.3376 107.939 23.4606 107.969C23.4626 107.97 23.4646 107.973 23.4666 107.974C23.5006 108.004 23.5286 108.034 23.5636 108.064C23.5756 108.079 23.5866 108.095 23.5996 108.108C23.6056 108.171 23.6376 108.246 23.6146 108.297ZM29.6026 113.264C29.5366 113.411 29.4336 113.471 29.2856 113.421C29.3276 113.288 29.4096 113.18 29.6006 113.149C29.9436 113.094 30.0886 113.307 30.0526 113.608C30.0486 113.644 30.0606 113.669 30.0596 113.703C29.9496 113.59 29.8196 113.45 29.6026 113.264ZM32.0976 113.888C32.0926 113.902 32.0896 113.917 32.0846 113.93L32.0556 113.902C32.0686 113.896 32.0836 113.893 32.0976 113.888C32.1066 113.859 32.1156 113.83 32.1246 113.8C32.1516 113.817 32.1806 113.834 32.2076 113.85C32.1716 113.863 32.1336 113.875 32.0976 113.888ZM45.6156 124.426C44.3796 123.856 43.1636 123.29 41.6956 123.02C41.2126 122.797 40.7486 122.495 40.2316 122.166C40.1776 122.128 40.1196 122.091 40.0646 122.053C40.2936 122.106 40.5216 122.157 40.7426 122.2C41.2946 122.319 41.8196 122.437 42.3546 122.598C42.8966 122.742 43.4526 122.919 44.0576 123.187C45.0666 122.735 46.4966 124.531 47.4576 124.393C47.0766 123.781 48.6966 124.278 49.6296 124.389C49.4806 124.656 49.5866 125.009 49.6496 125.501C48.1636 125.366 46.8786 124.894 45.6156 124.426ZM64.3246 127.566C64.6226 127.379 64.8076 127.761 65.3456 127.679C65.3356 127.597 65.1626 127.624 65.0506 127.611C65.0756 127.488 65.4796 127.557 65.4726 127.417C65.3066 127.234 64.5646 127.435 64.1716 127.403C64.7606 126.978 66.2276 127.014 66.7136 126.747C66.9496 126.913 66.8556 127.201 66.7596 127.254C66.9156 127.531 67.0826 127.244 67.3526 127.387C67.7436 127.252 66.8816 127.242 67.0236 126.983C68.1256 126.906 68.3836 126.998 68.8626 126.69C69.3306 126.759 68.8576 126.836 69.7246 126.65C69.8776 127.218 68.8296 126.927 68.4846 127.14C69.0156 127.503 70.2986 126.567 70.3806 127.149C69.9306 127.194 69.4586 127.294 68.9686 127.397C68.4766 127.469 67.9636 127.545 67.4486 127.621C66.4126 127.757 65.3366 127.822 64.3246 127.566ZM64.6516 131.027C64.5116 131.29 65.0006 131.16 65.2736 131.163C64.7736 131.3 63.9556 131.34 63.0406 131.374C62.1256 131.348 61.1146 131.296 60.2146 131.353C61.2866 130.726 63.0326 131.323 64.6516 131.027ZM59.7476 131.589C60.6176 131.726 60.8306 131.672 61.7556 131.749C60.8866 131.319 63.6816 131.542 63.9166 131.743C63.1906 131.982 62.3226 131.93 61.5116 131.884C60.7006 131.843 59.9466 131.808 59.4256 131.999C59.3016 131.723 59.6786 131.748 59.7476 131.589ZM59.2626 132.332C59.3946 132.04 59.8096 132.257 60.0436 132.365C59.9986 132.561 59.3546 132.384 59.2626 132.332ZM69.8146 132.805L69.7796 132.539C69.7086 132.556 69.6426 132.572 69.5696 132.59C69.2286 132.647 68.8756 132.694 68.5116 132.742C67.7846 132.835 67.0166 132.912 66.2286 132.966C64.6536 133.059 63.0016 133.14 61.4506 132.842C61.2796 132.857 61.3436 133.007 61.1356 133.002C60.7686 132.96 60.4846 132.875 60.1926 132.795C60.2326 132.534 60.9746 132.683 61.4506 132.673C61.4626 132.552 61.4736 132.434 61.2926 132.413C62.8146 132.377 65.5586 132.386 67.8016 131.776C68.3136 131.834 68.7986 131.909 69.0906 132.111C69.5366 132.007 68.9646 131.847 69.0396 131.691C69.4256 131.608 69.7926 131.944 69.9756 131.669C70.4356 131.675 70.1686 131.768 70.1776 131.981C70.9436 131.737 71.4966 131.546 72.0086 131.527C72.1186 131.222 71.5066 131.473 71.2086 131.481C71.6456 131.113 72.7436 131.056 73.2106 131.162C73.3886 131.46 72.5896 131.828 73.4776 131.719C72.8446 132.125 70.9706 131.833 70.6946 132.246C71.9106 132.273 73.9536 131.637 74.6706 132.035C73.0706 132.682 71.5806 132.421 69.8146 132.805ZM76.9596 130.772C76.9426 130.62 76.7306 130.647 76.7256 130.482C77.3066 130.247 77.2436 130.611 77.8256 130.372C77.7106 130.548 77.2066 130.629 76.9596 130.772ZM81.0676 129.237C79.2176 129.527 77.6236 130.009 75.7396 130.383C75.7986 130.529 76.2606 130.304 76.3816 130.395C76.4226 130.66 75.4956 130.788 75.4556 130.524C75.0626 130.766 75.0456 130.841 75.2796 131.156C74.5826 130.979 74.4366 130.76 74.6826 130.564C74.9286 130.36 75.5726 130.219 76.4506 130.028C76.2926 129.939 75.9406 130.032 75.6636 130.054C75.5296 129.812 76.3326 129.818 76.3496 129.617C76.5576 129.591 76.5256 129.792 76.5806 129.907C78.0126 129.448 78.1096 129.381 79.6686 128.917C79.9626 129.172 80.4236 128.712 80.8136 128.955C81.1956 128.77 80.3026 128.9 80.7076 128.633C81.7726 128.417 81.7436 128.651 82.8126 128.123C82.7556 127.889 81.8986 128.566 82.0036 128.148C82.7156 128.032 83.2166 127.767 83.7046 127.433C83.8206 127.6 83.7976 127.746 83.7116 127.882C84.1026 127.764 84.1446 127.596 84.0236 127.404C84.7216 127.046 84.9666 127.217 85.3036 127.284C84.7616 128.143 81.9346 128.577 81.0676 129.237ZM94.9656 125.495C94.9456 125.053 95.5786 125.019 95.9246 124.612C96.0536 124.878 95.2536 125.204 94.9656 125.495ZM99.3796 124.558C99.1196 125.181 99.1436 124.44 98.7286 124.768C98.7056 124.646 99.0356 124.492 99.2346 124.35C99.2906 124.456 99.3476 124.563 99.5186 124.471C99.5466 124.566 99.4056 124.597 99.3796 124.558ZM98.8756 123.272L99.4176 122.927L99.5656 123.134C99.2856 123.271 98.9626 123.481 98.8756 123.272ZM99.5046 122.771C99.3936 122.586 99.8356 122.318 100.176 122.064L100.328 122.268C100.016 122.513 99.7136 122.741 99.5046 122.771ZM99.2756 122.365C98.4366 122.944 97.5796 123.484 97.1466 123.857C97.2006 123.511 97.9166 122.962 98.7806 122.377C99.6346 121.778 100.581 121.055 101.215 120.541C100.863 121.064 100.077 121.732 99.2756 122.365ZM105.224 121.097C104.929 120.911 104.889 120.915 104.966 120.544C105.274 120.525 105.758 120.667 105.224 121.097ZM105.705 120.397C105.566 120.398 105.351 120.563 105.279 120.407C105.429 120.357 105.578 120.305 105.538 120.206C105.684 120.102 105.732 120.257 105.895 120.112C105.875 120.222 105.859 120.331 105.94 120.414C105.783 120.521 105.52 120.567 105.705 120.397ZM107.998 119.233C107.957 119.114 108.257 118.899 108.429 118.72C108.34 118.668 108.158 118.874 108.004 118.996C107.779 118.988 108.173 118.456 107.77 118.75C107.798 118.545 108.45 118.496 108.672 118.494C108.261 118.915 108.535 118.941 107.998 119.233ZM110.894 114.266L111.083 114.436L110.535 115.037C110.307 114.909 110.764 114.529 110.894 114.266ZM111.792 115.295C111.895 114.907 111.629 115.205 111.333 115.547C111.215 115.17 112.051 114.833 112.396 114.501C112.523 114.642 111.952 115.047 111.792 115.295ZM112.283 113.104C112.171 113.826 111.981 114.481 110.896 115.147C111.001 114.674 112.003 114.031 111.656 113.423C112.666 112.504 113.283 111.591 113.832 111.22C113.818 111.886 112.916 112.854 112.283 113.104ZM115.171 109.785C114.614 110.413 114.304 110.569 114.072 111.203L113.737 110.941C114.4 110.332 114.906 109.259 115.672 108.541C115.682 109.022 115.03 109.338 115.171 109.785ZM121.827 99.3495C121.542 99.3425 121.725 98.9885 121.44 98.9815C121.687 98.8265 121.907 97.9745 122.17 98.2495C121.994 97.9115 122.604 97.2916 122.867 96.7766C122.356 97.7356 122.297 98.6815 121.827 99.3495ZM121.937 102.179C121.813 102.103 121.681 102.183 121.546 102.344C121.394 102.236 121.595 101.9 121.813 101.55C121.822 101.88 122.022 101.52 122.03 101.852C122.222 101.598 122.43 100.931 122.598 101.208C122.388 101.343 122.162 101.797 121.937 102.179ZM122.828 100.392C122.801 99.8775 123.045 99.7786 123.336 99.3416C123.365 99.8516 123.12 99.9565 122.828 100.392ZM123.414 94.3745C123.359 94.2065 123.4 93.9345 123.55 93.5635C123.792 93.6165 123.641 94.2155 123.414 94.3745ZM123.277 92.0965C123.266 91.6705 123.492 91.5225 123.628 90.8705C123.869 90.9625 123.463 91.9165 123.277 92.0965ZM124.121 88.6965C124.356 88.9125 123.892 89.2925 123.918 89.7955C123.569 89.8195 124.063 89.0565 124.121 88.6965ZM124.082 91.3605C123.992 90.7625 124.113 90.4795 124.266 89.5715C124.317 89.8305 124.172 90.6705 124.537 89.8225C124.813 90.1405 124.236 90.7975 124.082 91.3605ZM125.295 84.4265C124.968 85.9805 125.113 86.5695 125.085 87.3215C125.017 87.6835 124.806 87.4276 124.718 87.7166C125.164 87.5706 124.857 88.7385 124.643 89.5205C124.375 89.3815 124.228 89.3836 124.209 89.2206C124.359 89.0896 124.479 88.5375 124.439 88.2955C124.132 88.6775 124.297 87.7665 124.102 87.7085C124.239 87.4085 124.317 87.4215 124.391 87.6255C124.5 86.4455 125.074 85.0885 125.161 83.9115C125.253 83.9545 125.281 84.2265 125.408 83.9655C125.056 84.1405 125.485 83.4335 125.271 83.4515C125.156 83.6235 125.093 83.5665 125.055 83.4305C125.173 83.0715 125.293 82.7135 125.393 82.3405C125.704 82.2345 125.242 83.0155 125.465 83.0105C125.591 82.3205 126.198 81.2705 125.898 81.0075C125.713 81.6895 125.731 81.9805 125.406 82.2965C125.411 82.2765 125.419 82.2575 125.424 82.2375C125.561 81.6365 125.676 81.0175 125.761 80.3755C125.892 80.3765 126.004 80.3135 126.107 80.2255C126.105 80.2315 126.103 80.2355 126.101 80.2415C126.342 80.5855 126.286 81.0245 126.191 81.4755C126.08 81.9245 125.898 82.3785 125.953 82.7825C125.747 83.1455 125.63 83.1015 125.51 83.1805C125.726 83.4935 125.459 84.9435 125.349 85.2535C125.074 85.2665 125.467 84.5315 125.295 84.4265ZM125.281 92.2856C125.547 91.7536 125.367 91.4795 125.668 91.2045C126.08 91.1345 125.56 92.5876 125.281 92.2856ZM125.697 90.8685C126.048 90.6335 126.337 89.9745 126.726 89.9825C126.425 90.5625 126.118 91.1325 125.697 90.8685ZM129.117 63.7355C129.117 63.7315 129.118 63.7305 129.119 63.7265C129.119 63.7385 129.119 63.7475 129.12 63.7595C129.119 63.7515 129.118 63.7435 129.117 63.7355ZM129.498 63.0315C129.571 62.7835 129.576 63.7185 129.669 64.3275C129.295 64.1635 129.378 63.4235 129.498 63.0315Z" fill="#231F33"/>
<path fill-rule="evenodd" clip-rule="evenodd" d="M36.7696 12.1815C36.5316 12.5555 34.9766 13.0385 34.8876 13.2045C35.2276 13.1555 37.2736 12.2545 36.7696 12.1815Z" fill="#231F33"/>
<path fill-rule="evenodd" clip-rule="evenodd" d="M70.4986 0.549539C70.3956 0.353539 69.5646 0.463532 69.5076 0.283532C70.5696 0.0535323 71.2516 0.78054 72.3236 0.88154C72.3606 0.78554 72.3206 0.637529 72.5176 0.651529C72.6736 0.787529 72.7646 0.944541 72.9796 1.05854C74.1176 1.00854 76.2346 1.68253 77.1856 1.38653C76.9416 1.19453 75.9686 1.11353 76.5816 0.919534C75.7556 0.751534 76.4436 1.15453 76.0236 1.17353C75.9986 1.10253 75.9006 1.05453 75.7036 1.03753C76.0036 0.69653 74.6126 0.803533 74.0656 0.531533C73.6396 0.583533 74.3356 0.82953 73.8546 0.84353C73.5146 0.50953 72.8246 0.354533 72.8526 0.699533C72.9576 0.584533 71.5136 0.553538 72.0426 0.329538C70.2456 0.154538 70.4346 -0.0234583 69.0196 0.00254169C69.1506 0.310542 69.0286 0.21154 69.1586 0.51954C69.8276 0.38254 70.0576 0.653539 70.4986 0.549539Z" fill="#231F33"/>
<path fill-rule="evenodd" clip-rule="evenodd" d="M89.6456 13.4635C90.0546 13.5715 90.6136 13.8935 90.9426 13.8925C90.6156 13.6855 89.8586 13.3475 89.6456 13.4635Z" fill="#231F33"/>
<path fill-rule="evenodd" clip-rule="evenodd" d="M95.8576 13.7815C95.6996 14.0445 95.0626 13.5145 94.7486 13.5215C94.9186 13.8405 96.1376 14.1775 95.8576 13.7815Z" fill="#231F33"/>
<path fill-rule="evenodd" clip-rule="evenodd" d="M100.168 11.2325C100.244 11.1135 100.591 11.4355 100.688 11.3515C100.437 11.2405 100.369 10.7855 100.72 10.9735C100.902 11.2415 101.116 11.0605 101.555 11.1595C100.739 10.8925 99.5516 10.0955 99.1876 10.2435C99.8096 10.3585 100.551 11.0665 100.168 11.2325Z" fill="#231F33"/>
<path fill-rule="evenodd" clip-rule="evenodd" d="M100.524 19.6435C100.312 19.8165 100.624 20.0545 100.981 20.2995C100.896 19.8955 101.741 20.7175 101.376 20.2765C101.065 20.0585 100.9 20.1235 100.939 19.8465C101.006 19.8965 101.12 19.8945 100.99 19.7785C100.872 19.8155 100.746 19.8375 100.595 19.8025C100.619 19.7555 100.636 19.7075 100.524 19.6435Z" fill="#231F33"/>
<path fill-rule="evenodd" clip-rule="evenodd" d="M101.636 20.6825C102.333 21.5025 103.172 22.8465 104.054 22.9685C103.977 22.8755 103.833 22.7685 103.883 22.7025C104.24 22.9855 104.457 22.8605 104.895 23.3795C105.076 23.2425 104.804 23.0035 104.61 22.7835C104.045 22.5285 102.026 21.1895 102.206 20.6875C102.017 20.6855 101.777 20.5725 101.636 20.6825Z" fill="#231F33"/>
<path fill-rule="evenodd" clip-rule="evenodd" d="M107.502 17.8675C107.723 18.4015 109.437 19.3255 109.428 19.9365C109.716 20.1995 109.887 20.1565 110.217 20.5415C110.07 20.5765 109.893 20.5345 109.746 20.5685C110.008 20.7445 110.279 20.9415 110.539 21.1715C110.79 21.4105 111.043 21.6715 111.296 21.9465C111.803 22.4965 112.312 23.1035 112.824 23.7095C113.85 24.9225 114.905 26.1085 115.919 26.9575C116.022 27.9945 117.427 28.2795 117.291 29.0335C117.427 28.7815 117.35 28.8405 117.625 28.7735C116.787 28.1185 116.003 26.7805 116.089 26.2655C116.06 26.2455 116.063 26.2095 116.133 26.1275C116.106 26.1605 116.098 26.2135 116.089 26.2655C116.186 26.3325 116.695 26.1875 116.709 26.7325C116.997 26.7915 116.69 26.1855 116.969 26.5155C117.061 26.8405 117.121 27.1525 117.151 27.4495C117.411 27.7415 117.649 27.9335 117.892 28.1415C117.829 28.2245 117.686 28.2675 117.792 28.4315C118.09 28.0105 118.407 29.0465 118.562 29.3145C118.622 28.8935 118.016 28.1455 118.124 27.7455C117.808 27.8005 117.902 27.5215 117.547 27.1285C117.608 27.0445 117.752 27.0025 117.643 26.8365C117.493 26.7895 117.32 26.1095 116.857 25.9535C117.036 26.2615 116.974 26.3215 116.765 26.2495C116.367 25.5045 115.57 24.9075 115.24 24.0135C114.832 24.2685 114.591 23.6595 114.21 23.1335C114.099 23.1995 114.023 23.3925 113.85 23.2425C113.635 22.9745 113.788 22.8405 113.756 22.6385C113.937 22.8645 114.544 23.2615 114.281 22.8335C114.091 22.9835 113.55 21.9305 113.36 22.0845C113.621 22.3435 113.673 22.5255 113.52 22.6325C113.397 22.1815 113.15 22.4945 112.776 21.9545C112.575 22.0645 112.388 22.2195 112.129 22.1315C112.158 21.5295 111.38 21.5775 110.988 21.1685C110.819 20.6925 110.666 20.2805 110.793 19.9175C110.367 19.6055 110.295 19.4485 110.119 19.4165C110.357 19.6655 110.213 19.8085 110.261 20.0035C109.376 19.4465 109.167 19.1435 108.411 18.3325C108.098 18.3705 107.783 18.2485 107.502 17.8675ZM114.104 24.1495C114.285 24.2425 114.486 24.4025 114.725 24.7085C114.633 25.1395 114.119 24.0115 114.029 24.4455C113.908 24.2915 114.048 24.2365 114.104 24.1495Z" fill="#231F33"/>
<path fill-rule="evenodd" clip-rule="evenodd" d="M106.849 25.0575C107.043 25.3515 106.983 25.5705 106.97 25.8025C107.207 26.1455 107.295 25.9025 107.501 26.1205C107.394 26.2195 107.427 26.3605 107.528 26.5215C107.822 26.0195 107.045 25.6465 107.175 25.1565C107.095 25.2345 106.938 25.0175 106.849 25.0575Z" fill="#231F33"/>
<path fill-rule="evenodd" clip-rule="evenodd" d="M124.626 42.4725C124.565 41.6155 125.181 42.7245 125.241 42.1885C124.96 42.2785 124.702 41.6965 124.425 41.6565C124.805 42.1685 124.351 42.0415 124.626 42.4725Z" fill="#231F33"/>
<path fill-rule="evenodd" clip-rule="evenodd" d="M124.855 45.4055C124.731 45.4005 124.624 45.2495 124.483 45.3805C124.671 45.8165 124.533 45.9635 124.533 46.2345C124.63 46.1645 124.979 46.9425 124.883 46.4435C124.413 45.8975 124.943 45.7735 124.855 45.4055Z" fill="#231F33"/>
<path fill-rule="evenodd" clip-rule="evenodd" d="M120.223 104.075C120.518 103.875 120.961 103.924 120.847 103.858C120.967 103.415 120.406 103.689 120.223 104.075Z" fill="#231F33"/>
<path fill-rule="evenodd" clip-rule="evenodd" d="M114.807 111.778C114.393 112.288 113.875 112.518 113.892 112.951C114.183 112.769 114.768 112.234 114.66 112.72C114.755 112.304 115.95 111.524 115.626 111.575C115.311 111.832 114.462 112.473 114.807 111.778Z" fill="#231F33"/>
<path fill-rule="evenodd" clip-rule="evenodd" d="M120.606 118.409C120.584 118.606 120.585 118.592 120.506 119.292C120.992 118.623 121.431 117.97 121.154 117.655C121.012 117.888 120.442 118.319 120.606 118.409Z" fill="#231F33"/>
<path fill-rule="evenodd" clip-rule="evenodd" d="M99.6856 126.47C99.4586 126.651 99.2496 126.594 99.2576 126.737C99.8406 126.567 98.7766 127.176 98.8246 127.306C99.2036 127.189 100.116 126.569 99.9236 126.52C99.3306 126.906 99.5546 126.699 99.6856 126.47Z" fill="#231F33"/>
<path fill-rule="evenodd" clip-rule="evenodd" d="M80.4636 134.322C80.7026 134.345 81.0886 134.237 81.1866 134.39C80.4216 134.633 79.1506 134.463 79.5616 134.825C79.7896 134.562 80.5746 134.662 80.7726 134.765C80.9086 134.534 82.3976 133.859 81.9436 134.007C81.2436 134.367 80.6936 134.053 80.4636 134.322Z" fill="#231F33"/>
<path fill-rule="evenodd" clip-rule="evenodd" d="M76.5586 134.543C76.5696 134.943 75.9496 135.398 76.6276 135.566C76.5416 135.415 76.8126 135.36 76.8966 135.244C76.3706 135.154 76.4376 134.654 77.4006 134.506C77.4976 134.189 76.8706 134.505 76.5586 134.543Z" fill="#231F33"/>
<path fill-rule="evenodd" clip-rule="evenodd" d="M73.6876 135.378C73.3546 135.51 74.0626 135.661 73.9656 135.934L73.3026 136.041L73.2256 135.624C72.7246 135.972 71.7426 136.031 72.1566 136.308C71.8866 136.214 71.4686 136.35 71.3396 136.518C72.6206 136.441 72.9416 136.076 73.9976 136.1C73.9956 135.996 74.0086 135.896 74.2966 135.879C73.7946 135.73 74.2646 135.354 73.6876 135.378Z" fill="#231F33"/>
<path fill-rule="evenodd" clip-rule="evenodd" d="M66.5926 140.173C66.9246 140.282 67.7646 140.099 67.5076 140.543C68.7716 140.424 67.0016 139.865 66.5926 140.173Z" fill="#231F33"/>
<path fill-rule="evenodd" clip-rule="evenodd" d="M59.6616 135.657C59.8546 135.707 60.0326 135.764 60.1536 135.847C61.9816 135.774 60.0256 135.641 59.6616 135.657Z" fill="#231F33"/>
<path fill-rule="evenodd" clip-rule="evenodd" d="M58.6626 136.038C58.8026 136.294 59.5566 136.394 59.9816 136.35C59.8586 136.161 59.2626 136.011 59.6586 135.827C58.7766 135.729 58.2506 135.83 57.6756 135.905C58.1566 136.218 57.1856 136.195 57.4896 136.319C57.7076 136.214 58.2766 136.243 58.4856 136.368C58.7046 136.166 58.4116 136.099 58.6626 136.038Z" fill="#231F33"/>
<path fill-rule="evenodd" clip-rule="evenodd" d="M56.3966 135.24C56.4096 135.452 56.1266 135.496 55.8816 135.531C55.8526 135.351 55.1626 135.414 55.0776 135.255C54.8956 135.31 54.9986 135.559 54.5636 135.441C51.7236 134.998 49.6026 134.734 47.6316 134.157C46.6416 133.895 45.6716 133.639 44.6456 133.367C44.1336 133.228 43.6076 133.084 43.0566 132.935C42.5176 132.748 41.9546 132.552 41.3586 132.345C41.2556 132.906 40.8496 132.086 40.5246 132.232C40.6986 132.766 41.0706 132.803 41.7916 133.213C42.0076 132.999 41.4326 132.903 41.4176 132.725C41.6326 132.803 41.7726 132.805 41.9126 132.806C41.5896 133.082 42.6496 133.32 42.0856 133.403C43.2536 133.726 44.5756 133.889 46.0016 134.2C46.7176 134.345 47.4666 134.506 48.2526 134.691C48.6446 134.785 49.0476 134.881 49.4606 134.98C49.8766 135.061 50.3036 135.145 50.7436 135.231C50.7556 135.084 50.9016 135.036 51.1086 135.029C51.4736 135.299 51.5326 135.175 52.2476 135.286C52.0266 135.504 52.1086 135.584 52.5226 135.754C52.5616 135.66 52.5246 135.512 52.7186 135.525C53.5716 135.65 54.6986 135.693 55.6906 135.659C56.5756 135.622 57.3536 135.449 57.7466 135.291C57.4396 135.361 56.7756 135.218 56.3966 135.24Z" fill="#231F33"/>
<path fill-rule="evenodd" clip-rule="evenodd" d="M35.4666 121.378C36.0406 121.594 36.6696 122.025 36.0166 121.923C36.3276 122.16 36.7336 122.434 36.9826 122.286C37.3956 122.676 37.4426 123.309 38.0786 123.454C38.0326 123.595 37.9466 123.684 37.8126 123.705C38.2786 123.853 38.5276 123.704 38.9166 123.749C39.1616 123.899 38.9006 124.103 39.3606 124.232C39.5716 124.081 40.3266 124.267 41.0366 124.544C40.9916 124.587 40.9536 124.629 40.9496 124.675C40.9406 124.784 41.0146 124.899 41.0536 125.011C41.1186 124.941 41.2326 124.875 41.2376 124.801C41.2416 124.739 41.2236 124.675 41.1996 124.61C41.9876 124.936 42.6606 125.354 42.3776 125.517C42.7886 125.62 43.1986 125.781 43.6006 125.945C43.5976 125.945 43.5946 125.945 43.5916 125.945C43.5376 125.951 43.4886 126.022 43.4416 126.067C43.3556 126.149 43.3866 126.269 43.5586 126.312C43.9236 126.404 44.3476 126.291 44.6356 126.639C44.9756 126.395 45.2656 126.505 45.6126 126.686C45.8106 126.789 45.9636 126.684 46.0416 126.473C46.0676 126.466 46.0966 126.466 46.1226 126.457C46.1016 126.446 46.0846 126.434 46.0636 126.423C46.0816 126.357 46.0866 126.278 46.0906 126.196C46.3416 126.243 46.6166 126.313 46.6576 126.157C46.4746 126.119 46.2816 126.077 46.0896 126.036C46.0616 125.857 45.9836 125.605 45.8776 125.676C45.7326 125.774 45.5856 125.834 45.4366 125.878C45.3006 125.843 45.1656 125.814 45.0296 125.773C44.4776 125.588 43.9136 125.388 43.3616 125.186C42.2596 124.776 41.1966 124.38 40.3726 124.073C40.4746 124.004 40.5876 123.947 40.7386 123.935C41.1536 124.064 41.3056 124.497 41.5676 124.235C41.1356 124.089 40.9426 123.9 40.6596 123.727C40.4356 123.92 40.0426 123.825 39.6486 123.676C39.2626 123.507 38.8706 123.299 38.6116 123.329C38.8256 123.306 38.9016 123.119 38.7726 122.937C38.1986 122.743 37.4616 122.32 37.1566 121.901C37.2376 121.806 37.4316 121.874 37.5226 121.793C36.6826 121.392 36.3246 121.546 35.4666 121.378Z" fill="#231F33"/>
<path fill-rule="evenodd" clip-rule="evenodd" d="M39.2136 128.068C40.0176 128.158 40.7076 128.236 41.4646 128.789C41.5076 128.681 41.4536 128.589 41.3956 128.496C41.6486 128.589 41.7946 128.568 41.8896 128.491C40.9586 128.281 40.5286 128.046 39.6246 127.859C40.5896 128.192 39.4456 128.073 39.2136 128.068Z" fill="#231F33"/>
<path fill-rule="evenodd" clip-rule="evenodd" d="M37.7606 127.04C37.5106 126.933 37.3236 126.819 37.2236 126.701C36.9726 126.86 37.7066 127.535 37.5236 127.211C37.1266 126.978 37.7896 127.188 37.7606 127.04Z" fill="#231F33"/>
<path fill-rule="evenodd" clip-rule="evenodd" d="M34.4406 127.553C34.0536 128.027 35.7586 128.4 35.8166 128.851L35.8816 128.695C35.9736 128.731 36.0616 128.764 36.0616 128.685C35.7266 128.477 35.2276 128.284 34.6276 127.923C34.6676 127.795 34.7676 127.664 34.4406 127.553Z" fill="#231F33"/>
<path fill-rule="evenodd" clip-rule="evenodd" d="M29.4806 131.373C29.6366 131.39 30.1446 131.257 29.8236 131.07C29.4166 131.192 29.2196 130.887 28.8976 130.975C29.1576 131.126 29.2646 131.24 29.2856 131.371C28.7346 131.232 28.7636 131.106 28.2156 130.777C28.1066 130.899 28.2996 131.041 28.2116 131.167C27.7426 130.753 27.2636 130.813 26.8766 130.681C27.3316 130.922 27.2546 131.125 27.7116 131.366C28.2896 131.305 28.6636 131.668 29.7286 132.06C29.7546 131.887 30.0156 132.012 30.1556 131.985C29.7566 131.78 29.6716 131.576 29.4806 131.373Z" fill="#231F33"/>
<path fill-rule="evenodd" clip-rule="evenodd" d="M33.6336 115.569C33.9786 115.647 34.1056 116.071 34.2176 115.918C33.7086 115.577 33.9986 115.496 33.9646 115.273C33.6936 115.344 33.6396 115.262 33.6336 115.569Z" fill="#231F33"/>
<path fill-rule="evenodd" clip-rule="evenodd" d="M103.72 13.4705C104.302 13.9445 104.57 13.8125 105.002 13.9955C105.344 14.3395 105.36 14.6255 105.564 14.9435C105.89 15.0575 106.244 15.3525 106.645 15.6925C107.025 16.0575 107.45 16.4705 107.953 16.7955C107.311 16.2895 107.35 15.9575 107.202 15.5745C106.611 15.3395 106.392 14.9585 105.85 14.8415C105.953 14.7195 105.853 14.6195 105.631 14.5695C105.776 14.4155 105.901 14.2585 105.611 14.0265C105.173 13.9965 104.53 13.5645 104.09 13.5315C104.019 13.3395 104.013 13.1575 103.875 12.9535C103.815 13.0535 103.705 13.0595 103.595 13.0645C103.843 13.2315 103.863 13.3645 103.72 13.4705Z" fill="#231F33"/>
<path fill-rule="evenodd" clip-rule="evenodd" d="M42.4426 134.179C42.1106 133.941 41.7256 133.705 41.3096 133.494C40.4766 133.072 39.5196 132.749 38.5986 132.715C38.5396 133.417 37.8546 133.468 36.9486 133.284C37.1446 132.905 36.1326 132.658 36.0376 132.309C35.9606 132.675 35.3986 132.276 35.4196 132.494C35.3756 132.34 35.2516 132.191 35.0466 132.045C34.9346 132.455 33.9826 131.849 33.3656 131.639C33.2536 131.937 33.4466 131.944 33.1646 132.107C33.7886 132.688 35.3466 133.465 35.8456 133.778C37.4656 133.897 39.2056 135.791 41.2656 136.259C42.6406 136.563 43.5486 135.958 43.2696 134.821C43.0646 134.615 42.7766 134.409 42.4426 134.179Z" fill="#231F33"/>
</svg>
